<svg xmlns="http://www.w3.org/2000/svg" width="25" height="25" viewBox="0 0 35.932 49.492"> <g id="Group_11337" data-name="Group 11337" transform="translate(-7.576 -1)"> <path id="Path_15189" data-name="Path 15189" d="M25.223,39.22l1.141-.888c2.652,2.992,7.749,1.876,10.962-.621,3.377-2.626,5.623-7.5,3.126-10.715s-7.658-2.207-10.913.2l-.885-1.141c3.918-2.91,9.925-3.818,12.937.058,3,3.86.7,9.573-3.379,12.741C34.3,41.887,28.324,42.822,25.223,39.22Z" transform="translate(0.549 0.7)" fill="#fff"></path> <path id="Path_15190" data-name="Path 15190" d="M19.907,12.743H16.424a.844.844,0,0,0-.844.844v1.857a.844.844,0,0,0,.844.844h3.483a.844.844,0,0,0,.844-.844V13.587A.844.844,0,0,0,19.907,12.743Z" transform="translate(0.249 0.365)" fill="#4d4d4d"></path> <path id="Path_15191" data-name="Path 15191" d="M19.907,16.181H16.424a.844.844,0,0,0-.844.844v1.857a.844.844,0,0,0,.844.844c2.242-.2,4.327.549,4.327-.844V17.025A.844.844,0,0,0,19.907,16.181Z" transform="translate(0.249 0.472)" fill="#4d4d4d"></path> <path id="Path_15193" data-name="Path 15193" d="M26.785,9.741a.7.7,0,0,1-.7.7H10.6a.7.7,0,1,1,0-1.407H26.081a.7.7,0,0,1,.7.7Z" transform="translate(0.072 0.25)" fill="#fff"></path> <path id="Path_15194" data-name="Path 15194" d="M11.037,10.4l1.278,1.714a2.418,2.418,0,0,0,1.938.973h8.106a2.418,2.418,0,0,0,1.938-.973L25.576,10.4Z" transform="translate(0.108 0.292)" fill="#4d4d4d"></path> <path id="Path_15195" data-name="Path 15195" d="M23.051,1H13.414L14,2.309A3.7,3.7,0,0,1,14.317,4c-.074,1.547-.015,4.73,1.661,5.289h4.509C22.163,8.729,22.222,5.546,22.148,4a3.7,3.7,0,0,1,.316-1.69Z" transform="translate(0.182 0)" fill="#4d4d4d"></path> <path id="Path_15197" data-name="Path 15197" d="M22.371,26.772H14.054a5.531,5.531,0,0,0,.779-2.588c-.064-1.335-.013-4.082,1.434-4.564h3.891c1.446.482,1.5,3.229,1.434,4.564A5.537,5.537,0,0,0,22.371,26.772Z" transform="translate(0.201 0.579)" fill="#4d4d4d"></path> <path id="Path_15199" data-name="Path 15199" d="M23.612,27.121v1.841a.561.561,0,0,1-.563.563h-9.6a.561.561,0,0,1-.563-.563V27.121a.561.561,0,0,1,.563-.563C22.221,26.774,23.612,26.048,23.612,27.121Z" transform="translate(0.165 0.793)" fill="#fff"></path> <path id="Path_15200" data-name="Path 15200" d="M29.031,40.238c-1.4-5.773-6.646-10.8-6.646-10.8H14.443S9.2,34.465,7.8,40.238a7.546,7.546,0,0,0,.7,5.444,7.329,7.329,0,0,0,5.367,3.927h9.106a7.329,7.329,0,0,0,5.367-3.927A7.546,7.546,0,0,0,29.031,40.238Z" transform="translate(0 0.884)" fill="#4d4d4d"></path> <path id="Path_15202" data-name="Path 15202" d="M30.43,25.627a1.162,1.162,0,0,0-1.62-.27l-2.381,2.083a.752.752,0,0,0-.175,1.049l.121.194a.752.752,0,0,0,1.049.175l2.736-1.612A1.161,1.161,0,0,0,30.43,25.627Z" transform="translate(0.576 0.751)" fill="#4d4d4d"></path> <path id="Path_15203" data-name="Path 15203" d="M28.332,28.261l-.443.258L26.848,27l.391-.34Z" transform="translate(0.599 0.798)" fill="#fff"></path> </g> 
                                    </svg> 