<svg xmlns="http://www.w3.org/2000/svg" width="25" height="25" viewBox="0 0 51.799 49.076"> <path id="Path_15055" data-name="Path 15055" d="M23.178,30.72c.09-.852-1.457-2.017-3.407-2.936a14.423,14.423,0,0,0-4.124-1.255,4.793,4.793,0,0,0-3.048.347c-.56.37-.829,1.076-.594,2.253.65,3.25-.874,4.214-2.3,5.11-.717.448-1.4.874-1.289,1.849a44.115,44.115,0,0,1,.045,4.561c-.056,3.228-.134,7.049.516,8.372A.9.9,0,0,1,8.172,50.3H3.51a.9.9,0,0,1-.9-.93L2.075,32.637a.9.9,0,0,1,.448-.807c2.264-1.434,1.412-3.4.4-5.716C2.008,24,.988,21.642,1.448,18.942c.784-4.572,8.977-9.627,10.31-10.422,4.416-6.836,7.161-7.285,9.862-5.559a18.311,18.311,0,0,1,2.723,2.365,25.9,25.9,0,0,0,3.026,2.656c4.83,3.418,5.525,4.326,7.531,6.971l.829,1.076c.8,1.031,1.2,1.345,1.345,1.233,1.121-.874.93-6.567.863-8.585-.011-.426-.022-.717-.011-.841.829-8.181,6.209-6.6,7.06-6.276.784.09,5.435.762,7.229,2.88a2.717,2.717,0,0,1-.829,4.516.885.885,0,0,1-.392.09q-2.325.132-4.64.392l-.067,1.3c-.168,3.362-.56,10.736-3.261,12.552-.549.672-3.317,3.833-6.859,3.99a4.752,4.752,0,0,0-2.1.616c-2.073,1.143-3.721,3.732-4.83,6.769a26.168,26.168,0,0,0-1.569,9.694,11.058,11.058,0,0,0,1.065,4.628.9.9,0,0,1-.784,1.311H23.357a.9.9,0,0,1-.874-.975c0-.9-.022-2.309-.056-3.945C22.315,40.19,22.136,32.737,23.178,30.72ZM14.291,13.036A.9.9,0,0,0,15.524,14.3c.022,0,4-3.99,8,0a.9.9,0,0,0,1.255-1.255c-5.245-5.245-10.479-.022-10.49,0Z" transform="translate(-1.334 -1.223)" fill="#4d4d4d"/> </svg>