<?xml version="1.0" encoding="utf-8"?>
<!-- Generator: Adobe Illustrator 23.0.4, SVG Export Plug-In . SVG Version: 6.00 Build 0)  -->
<svg version="1.1" id="Layer_1" xmlns="http://www.w3.org/2000/svg" xmlns:xlink="http://www.w3.org/1999/xlink" x="0px" y="0px"
	 viewBox="0 0 400 400" style="enable-background:new 0 0 400 400;" xml:space="preserve">
<style type="text/css">
	.st0{fill:#4D4D4D;}
</style>
<g>
	<path class="st0" d="M317.6,322.8c-21.6-56.7-80.8-48-80.8-48l-107.1,24.1h-1c-17.7-11.6-50.3-4.1-51.3,22.4
		c-1,26.6,24,31.9,24,31.9c7.6,20.5,26.1,21.5,26.1,21.5h162C329.6,369.4,317.6,322.8,317.6,322.8z M109.9,334.4
		c-6.1,0-11.1-4.6-11.1-10.3s5-10.3,11.1-10.3s11.1,4.6,11.1,10.3S116,334.4,109.9,334.4z"/>
	<path class="st0" d="M74.8,285.1c0,0,22.7-20.8,56.5-7.7l31.3-7.7l-29.4-98c0,0-8.3-24.1-32.6-31.9c0,0,17.5-17.6,11.7-42
		S100.6,28,48.2,27.1c0,0-43,1.7-35.9,41l19.5,68.6c0,0,3.9,12.1,14.3,18.1c0,0-6.8,9.2-0.5,31.1L74.8,285.1z"/>
	<path class="st0" d="M277.7,25.3C216.6,25.3,167,76,167,138.5s49.6,113.2,110.7,113.2S388.5,201,388.5,138.5S338.9,25.3,277.7,25.3
		z M260.1,89.7c0,0-31.1-2.9-34.4,31.9c0,0-1,6.2-7.9,6.8c-6.9,0.5-8.9-6.2-8.9-6.2s-1.2-44.5,50.8-48.2c0,0,7.7,1.3,8.1,7.1
		C268.2,87,263.3,89.3,260.1,89.7z"/>
</g>
</svg>
