<?xml version="1.0" encoding="utf-8"?>
<!-- Generator: Adobe Illustrator 23.0.6, SVG Export Plug-In . SVG Version: 6.00 Build 0)  -->
<svg version="1.1" id="Layer_1" xmlns="http://www.w3.org/2000/svg" xmlns:xlink="http://www.w3.org/1999/xlink" x="0px" y="0px"
	 viewBox="0 0 400 400" style="enable-background:new 0 0 400 400;" xml:space="preserve">
<style type="text/css">
	.st0{fill:#4D4D4D;}
</style>
<g>
	<path class="st0" d="M315.6,265.8c0,0,34.5-7.3,37.3,45s-53.5,60.4-53.5,60.4h-181c0,0-29.6-0.4-36.1-43.8c0,0-5.3-38.5,41.8-40.2
		c0,0,67.3,8.5,88,6.1s58.4-11.4,75.5-20.3C304.6,264.1,315.6,265.8,315.6,265.8z"/>
	<path class="st0" d="M100.4,123.8c0,0,37.3,37.1,52.7,78.5s11.2,70.6,11.2,70.6s-40.4-6.5-60.2-4.1s-28.6,13.8-31,21.3
		c0,0-15-56.7-24.7-153.7S79.6,31.7,92.9,29S132.5,59.3,100.4,123.8z"/>
	<path class="st0" d="M202.9,111.8c0,0-5.1,6.5,1.4,11.6c1.7,1.4,3.8,2.9,5.9,4.6c9.7,7.9,13.2,21.3,8.4,32.9
		c-0.1,0.2-0.2,0.4-0.3,0.6c-1.6,3.5,3.5,11.1,7.8,12.2c4.3,1.1,14.3,10.3,12.4,22.2c-1.9,11.9-5.9,15.4-0.3,20.8
		c5.7,5.4,10,7.3,4.3,13.3c-5.7,5.9-19.5-11.1-19.5-12.4s-2.4-10.5,3.2-20c4-6.7-3.7-12.3-8.5-15c-3.8-2.1-7.1-5.1-9.5-8.7
		c-2-2.9-3.7-6.4-3.6-9.6c0.3-7.6,6.8-13.5,3-21.1s-11.4-7.8-13.3-9.5c-1.9-1.6-8.7-11.6-3.5-25.2S206.7,107.4,202.9,111.8z"/>
	<path class="st0" d="M167.8,122.3c0,0-5.1,6.5,1.4,11.6c1.7,1.4,3.8,2.9,5.9,4.6c9.7,7.9,13.2,21.3,8.4,32.9
		c-0.1,0.2-0.2,0.4-0.3,0.6c-1.6,3.5,3.5,11.1,7.8,12.2c4.3,1.1,14.3,10.3,12.4,22.2c-1.9,11.9-5.9,15.4-0.3,20.8
		c5.7,5.4,10,7.3,4.3,13.3c-5.7,5.9-19.5-11.1-19.5-12.4s-2.4-10.5,3.2-20c4-6.7-3.7-12.3-8.5-15c-3.8-2.1-7.1-5.1-9.5-8.7
		c-2-2.9-3.7-6.4-3.6-9.6c0.3-7.6,6.8-13.5,3-21.1s-11.4-7.8-13.3-9.5c-1.9-1.6-8.7-11.6-3.5-25.2S171.6,118,167.8,122.3z"/>
</g>
</svg>
