<?xml version="1.0" encoding="utf-8"?>
<!-- Generator: Adobe Illustrator 23.0.4, SVG Export Plug-In . SVG Version: 6.00 Build 0)  -->
<svg version="1.1" id="Layer_1" xmlns="http://www.w3.org/2000/svg" xmlns:xlink="http://www.w3.org/1999/xlink" x="0px" y="0px"
	 viewBox="0 0 400 400" style="enable-background:new 0 0 400 400;" xml:space="preserve">
<style type="text/css">
	.st0{fill:#4D4D4D;}
</style>
<g>
	<path class="st0" d="M200.6,268.3c-21,0-39.5,14.4-44.6,34.4c14.9,7.2,30.8,11.3,47.7,11.3c14.4-0.5,28.7-3.6,42.1-9.2
		C241.1,283.7,222.6,268.3,200.6,268.3z"/>
	<path class="st0" d="M139,232.3c0-25.7-20.5-46.2-46.2-46.2c-1.5,0-2.6,0-4.1,0c0,0.3-0.1,0.6-0.1,0.9c-0.4,4.2-0.8,8.4-0.9,12.5
		c0,0.7,0,1.3,0,2c0,0.9,0,1.8,0,2.7c0,0.4,0,0.8,0,1.1c0,0.5,0,1,0.1,1.4c0,0.5,0.1,1,0.1,1.6c0,0.3,0,0.6,0.1,0.9
		c0,0.6,0.1,1.3,0.1,1.9c0,0.1,0,0.2,0,0.3c2,22.7,10.9,44.4,25.7,61.9C129.2,265.7,139,249.8,139,232.3z"/>
	<path class="st0" d="M180,109.2c0-6.1-1-12.3-3.6-17.9c-28.3,6.2-52.7,23.1-68.8,46.3c-1.4,2.1-2.8,4.3-4.1,6.5
		c8.2,7.2,19,11.3,30.3,11.3C159.5,155.4,180,134.9,180,109.2z"/>
	<path class="st0" d="M200.6,170.8c-16.9,0-30.8,13.9-30.8,30.8c0,16.9,13.9,30.8,30.8,30.8c16.9,0,30.8-13.9,30.8-30.8
		C231.3,184.6,217.5,170.8,200.6,170.8z M185.2,206.7c-3.1,0-5.1-2.1-5.1-5.1s2.1-5.1,5.1-5.1c3.1,0,5.1,2.1,5.1,5.1
		S188.2,206.7,185.2,206.7z M200.6,222.1c-3.1,0-5.1-2.1-5.1-5.1s2.1-5.1,5.1-5.1s5.1,2.1,5.1,5.1S203.6,222.1,200.6,222.1z
		 M200.6,191.3c-3.1,0-5.1-2.1-5.1-5.1c0-3.1,2.1-5.1,5.1-5.1s5.1,2.1,5.1,5.1C205.7,189.2,203.6,191.3,200.6,191.3z M216,206.7
		c-3.1,0-5.1-2.1-5.1-5.1s2.1-5.1,5.1-5.1s5.1,2.1,5.1,5.1S219,206.7,216,206.7z"/>
	<path class="st0" d="M267.3,155.4c11.3,0,22.1-4.1,30.3-11.3c-1.3-2.2-2.7-4.4-4.1-6.5c-16-23.1-40.4-40.1-68.8-46.3
		c-2.5,5.6-3.6,11.8-3.6,17.9C221.1,134.9,241.6,155.4,267.3,155.4z"/>
	<path class="st0" d="M312.9,192.3c-3.1-0.5-6.7-1-9.7-1c-25.7,0-46.2,20.5-46.2,46.2c0,17.9,10.2,33.8,25.5,41.5
		c18.5-19.6,30.1-45.7,30.9-74.5c0,0,0,0,0-0.1c0-1,0-1.9,0-2.9c0-2.4-0.1-4.7-0.2-7C313.2,193.8,313.1,193.1,312.9,192.3z"/>
	<path class="st0" d="M246.7,237.5c0-31.3,25.1-56.4,56.4-56.4c3,0,5.8,0.3,8.5,0.8c-1.8-10.2-5-20-9.4-29.1
		c-9.7,8.5-22,12.9-35,12.9c-31.3,0-56.4-25.1-56.4-56.4c0-6.8,1.1-13.4,3.4-19.7c-4.5-0.5-9-0.8-13.6-0.8c-4.7,0-9.4,0.3-14,0.9
		c2.6,6,3.8,12.7,3.8,19.6c0,31.3-25.1,56.4-56.4,56.4c-13,0-25.3-4.4-35.3-12.3c-3.4,7.2-6.1,14.7-7.9,22.6
		c0.7-0.1,1.5-0.1,2.2-0.1c31.3,0,56.4,25.1,56.4,56.4c0,20.6-11,39.1-28.3,49.1c7.3,7.3,15.6,13.6,24.7,18.7
		c6.7-24.8,28.7-42.1,54.9-42.1c25.8,0,48.2,17.6,54.6,42.3c7.1-4,13.7-8.6,19.8-14C257.6,276.3,246.7,257.9,246.7,237.5z
		 M200.6,242.6c-22.6,0-41.1-18.5-41.1-41.1s18.5-41.1,41.1-41.1s41.1,18.5,41.1,41.1S223.1,242.6,200.6,242.6z"/>
	<path class="st0" d="M200,25.6c-96.3,0-174.4,78.1-174.4,174.4S103.7,374.4,200,374.4S374.4,296.3,374.4,200S296.3,25.6,200,25.6z
		 M200,351.5c-83.7,0-151.5-67.8-151.5-151.5S116.3,48.5,200,48.5S351.5,116.3,351.5,200S283.7,351.5,200,351.5z"/>
</g>
</svg>
