<?xml version="1.0" encoding="utf-8"?>
<!-- Generator: Adobe Illustrator 25.0.1, SVG Export Plug-In . SVG Version: 6.00 Build 0)  -->
<svg version="1.2" baseProfile="tiny" id="Layer_1" xmlns="http://www.w3.org/2000/svg" xmlns:xlink="http://www.w3.org/1999/xlink"
	 x="0px" y="0px" viewBox="0 0 512 512" overflow="visible" xml:space="preserve">
<g>
	<path fill="#4D4D4D" d="M430,166.2c0,0-13.1-27,1.7-48c14.8-20.9,16.6-15.7,2.6-27.9c0,0-176.2-89.8-307.9,17.4
		c0,0-102.9,82.9-45.4,226.8c0,0,14,26.2,5.2,41.9c-8.7,15.7-28.8,28.8,1.7,40.1c30.5,11.3,160.5,85.5,283.4-0.9
		C497.9,326.9,430.3,166.5,430,166.2z M256.3,391.7c-76.7,0-139-62.2-139-138.9S179.6,114,256.3,114c76.7,0,139,62.2,139,138.9
		S333.1,391.7,256.3,391.7z"/>
	<path fill="#4D4D4D" d="M257.3,149.6c-56.4,0-102,45.7-102,102c0,56.4,45.7,102,102,102c56.4,0,102-45.7,102-102
		C359.4,195.3,313.7,149.6,257.3,149.6z M289.6,249c-16.4,0-29.7-13.3-29.7-29.7c0-16.4,13.3-29.7,29.7-29.7
		c16.4,0,29.7,13.3,29.7,29.7C319.3,235.8,306,249,289.6,249z"/>
</g>
</svg>
