<?xml version="1.0" encoding="utf-8"?>
<!-- Generator: Adobe Illustrator 26.0.3, SVG Export Plug-In . SVG Version: 6.00 Build 0)  -->
<svg version="1.1" id="Layer_1" xmlns="http://www.w3.org/2000/svg" xmlns:xlink="http://www.w3.org/1999/xlink" x="0px" y="0px"
	 viewBox="0 0 512 512" style="enable-background:new 0 0 512 512;" xml:space="preserve">
<style type="text/css">
	.st0{fill:#4D4D4D;}
</style>
<g id="rZnQlN_00000074423054326063926710000013011251621558721944_">
	<g>
		<path class="st0" d="M148.4,112.7c0-14.5,0-27.9,0-41.2c0-19.4,11-30.5,30.3-30.6c51.3,0,102.7,0,154,0c20.4,0,31,10.8,31,31.3
			c0,12.6,0,25.3,0.1,37.9c0,0.5,0.2,0.9,0.7,2.5c2.3,0,4.9,0,7.5,0c29.3,0,58.5-0.1,87.8,0c23.4,0.1,40.4,13.1,45.9,34.6
			c0.7,2.6,1,5.3,1,8c0.1,35.2,0.1,70.4,0,105.7c0,1.2-0.2,2.4-0.3,4c-167,0-333.8,0-501.4,0c0-2.6,0-5,0-7.5c0-32.5,0-65,0-97.5
			c0-27.9,19.1-47.2,47.1-47.3c29-0.2,58,0,87.1,0C142,112.7,144.7,112.7,148.4,112.7z M185.2,112c48.1,0,95.3,0,142.4,0
			c0-11.9,0-23.2,0-34.6c-47.7,0-94.9,0-142.4,0C185.2,89.2,185.2,100.5,185.2,112z"/>
		<path class="st0" d="M506.9,292.7c0,18,0,35.6,0,53.1c0,26.8,0,53.6,0,80.4c-0.1,25.5-19,44.9-44.4,44.9
			c-137.9,0.1-275.8,0.1-413.7,0c-23.3,0-43.3-19.5-43.5-42.8c-0.4-44.1-0.1-88.3-0.1-132.4c0-0.9,0.2-1.9,0.4-3.2
			c62.6,0,124.9,0,188.2,0c0,12.9,0.6,25.6-0.1,38.1c-1.1,17.7,8.6,24.8,23.8,24.4c27-0.8,54.1-0.2,81.1-0.2c13,0,20.3-7,20.5-20.1
			c0.2-13.8,0-27.7,0-42.1C381.7,292.7,443.8,292.7,506.9,292.7z"/>
		<path class="st0" d="M220.6,292.5c23.5,0,46.9,0,70.8,0c0,11.7,0,23,0,34.9c-23.4,0-46.7,0-70.8,0
			C220.6,316.1,220.6,304.6,220.6,292.5z"/>
	</g>
</g>
</svg>
