<?xml version="1.0" encoding="utf-8"?>
<!-- Generator: Adobe Illustrator 24.1.0, SVG Export Plug-In . SVG Version: 6.00 Build 0)  -->
<svg version="1.1" id="Layer_1" xmlns="http://www.w3.org/2000/svg" xmlns:xlink="http://www.w3.org/1999/xlink" x="0px" y="0px"
	 viewBox="0 0 512 512" style="enable-background:new 0 0 512 512;" xml:space="preserve">
<style type="text/css">
	.st0{fill:#4D4D4F;}
</style>
<g>
	<path class="st0" d="M300,256.2l45.6,45.6c5.5-14.3,8.6-29.6,8.6-45.8c0-16-3-31.4-8.5-45.5L300,256.2L300,256.2z M404.1,152.1
		L379.1,177c12.2,23.7,19.4,50.5,19.4,79.2s-7.1,55.3-19.4,79.2l23.7,23.7c19-30.4,30.3-66.2,30.3-104.6
		C432.9,216.8,422.3,181.8,404.1,152.1L404.1,152.1z M328.8,171.5L216.6,59.2H197v149.1l-90.1-90.1l-27.9,27.9L188.8,256L78.9,365.9
		l27.9,27.9l90.1-90.1v149.1h19.6l112.2-112.2L244.5,256L328.8,171.5L328.8,171.5z M236.3,134.7l37,37l-37,36.8V134.7z M273.2,340.5
		l-37,36.8v-74L273.2,340.5z"/>
</g>
</svg>
