<svg xmlns="http://www.w3.org/2000/svg" width="20.269" height="17" viewBox="0 0 20.269 17"><path d="M4138.677,468.4h8.485V481.41h-11.257v-13.2Z" transform="translate(-4131.443 -464.652)" fill="#d1d1d1"/><path d="M26.962,51.269h-4.9V48.981A.982.982,0,0,0,21.077,48H15.192a.982.982,0,0,0-.981.981v2.288h-4.9A1.309,1.309,0,0,0,8,52.577V63.692A1.309,1.309,0,0,0,9.308,65H26.962a1.309,1.309,0,0,0,1.308-1.308V52.577A1.309,1.309,0,0,0,26.962,51.269ZM10.288,64.346H9.308a.655.655,0,0,1-.654-.654V52.577a.655.655,0,0,1,.654-.654h.981Zm1.962,0H10.942V51.923H12.25Zm2.615-15.365a.327.327,0,0,1,.327-.327h5.885a.327.327,0,0,1,.327.327v2.288H20.75V49.635a.327.327,0,0,0-.327-.327H15.846a.327.327,0,0,0-.327.327v1.635h-.654Zm5.231.981v1.308H16.173V49.962Zm-4.9,4.288.981.49v3.394H14.212V54.74Zm8.173,10.1H12.9V51.923h1.962v1.76l-1.127.563a.327.327,0,0,0-.181.293v3.923a.327.327,0,0,0,.327.327H16.5a.327.327,0,0,0,.327-.327V54.538a.327.327,0,0,0-.181-.293l-1.127-.563v-1.76h7.846Zm1.962,0H24.019V51.923h1.308Zm2.288-.654a.655.655,0,0,1-.654.654h-.981V51.923h.981a.655.655,0,0,1,.654.654Z" transform="translate(-8 -48)" fill="#4d4d4f"/></svg>