<?xml version="1.0" encoding="utf-8"?>
<!-- Generator: Adobe Illustrator 23.0.6, SVG Export Plug-In . SVG Version: 6.00 Build 0)  -->
<svg version="1.1" id="Layer_1" xmlns="http://www.w3.org/2000/svg" xmlns:xlink="http://www.w3.org/1999/xlink" x="0px" y="0px"
	 viewBox="0 0 512 512" style="enable-background:new 0 0 512 512;" xml:space="preserve">
<style type="text/css">
	.st0{opacity:0.54;}
	.st1{fill:#4D4D4F;}
	.st2{fill:#4D4D4D;}
</style>
<g>
	<g class="st0">
		<path class="st1" d="M437,263.6c-8.5-12.7-25.4-20.5-44.3-20.5H238.5c-29.5,0-57.6,9.5-77.3,26l-74.6,62.8
			c-16.8,14.2-26.1,32.4-26.1,52.2L73.9,461l0,0c1.9,11,8.7,21.4,19.2,29.2c12.8,9.6,29.7,14.8,47.8,14.8h269.4
			c17.5,0,31.8-10.6,31.8-23.8V280.3C442.1,274.6,440.3,268.8,437,263.6z M426.2,481.3c0,6.6-7.2,11.9-15.9,11.9H141
			c-13.8,0-26.8-4-36.6-11.3c-8-6-13.2-14-14.6-22.3l-13.2-76.1c0-16,7.9-31.5,22.1-43.5l74.6-62.8c16.6-14,40.4-22,65.4-22h154
			c12.9,0,24.4,5.4,30.1,14c2.3,3.4,3.6,7.4,3.6,11.3L426.2,481.3L426.2,481.3z"/>
		<path class="st1" d="M392.5,267H238.6c-20.4,0-39.9,6.6-53.5,17.9l-74.6,62.8c-9.3,7.9-18.1,17.3-18.1,32.2c0,3.3,3.6,5.9,7.9,5.9
			h302c4.4,0,7.9-2.7,7.9-5.9v-99.8c0-2-0.7-4.1-1.9-5.9C405.4,269.7,399.4,267,392.5,267z M394.4,374.2H109
			c1.4-6.3,5.6-11.7,13.5-18.4l74.6-62.8c10.6-8.9,25.7-14,41.6-14h154c0.7,0,1.3,0.3,1.9,1.4L394.4,374.2L394.4,374.2z"/>
		<path class="st1" d="M402.4,409.8h-47.8c-4.4,0-7.9,2.7-7.9,5.9c0,3.2,3.6,5.9,7.9,5.9h47.6c4.4,0,7.9-2.7,7.9-5.9
			C410.3,412.5,406.9,409.8,402.4,409.8z"/>
		<path class="st1" d="M211.7,314.5c2,0,4-0.5,5.6-1.7l15.9-11.9c3.2-2.4,3.2-6.1,0-8.4c-3.2-2.4-8.2-2.4-11.2,0l-15.9,11.9
			c-3.2,2.4-3.2,6.1,0,8.4C207.7,314,209.7,314.5,211.7,314.5z"/>
		<path class="st1" d="M253.7,292.5l-47.6,35.7c-3.2,2.4-3.2,6.1,0,8.4c1.6,1.2,3.6,1.7,5.6,1.7s4-0.5,5.6-1.7l47.6-35.7
			c3.2-2.4,3.2-6.1,0-8.4C261.9,290.2,256.9,290.2,253.7,292.5z"/>
		<path class="st1" d="M402.4,445.6H116.3c-4.4,0-7.9,2.7-7.9,5.9s3.6,5.9,7.9,5.9h286.1c4.4,0,7.9-2.7,7.9-5.9
			S406.9,445.6,402.4,445.6z"/>
	</g>
	<g>
		<path class="st2" d="M221,179c2,0,4,0.5,5.6,1.6l15.9,10.7c3.2,2.1,3.2,5.5,0,7.6s-8.2,2.1-11.2,0l-15.9-10.7
			c-3.2-2.1-3.2-5.5,0-7.6C216.9,179.5,219,179,221,179z"/>
		<path class="st2" d="M263,198.9l-47.6-32.2c-3.2-2.1-3.2-5.5,0-7.6c1.6-1.1,3.6-1.6,5.6-1.6s4,0.5,5.6,1.6l47.6,32.2
			c3.2,2.1,3.2,5.5,0,7.6C271.2,201,266.2,201,263,198.9z"/>
		<path class="st2" d="M446.1,224.8c-8.5,11.4-25.4,18.5-44.3,18.5h-154c-29.5,0-57.6-8.6-77.3-23.4L96,163.2
			c-16.8-12.8-26.1-29.3-26.1-47.1l13.3-69.4c1.9-10,8.7-19.3,19.2-26.4C115.2,11.7,132.1,7,150.2,7h269.4
			c17.5,0,31.8,9.7,31.8,21.5v181.4C451.5,215.1,449.6,220.2,446.1,224.8z M131.7,141.8l74.6,56.7c10.6,8.1,25.7,12.7,41.6,12.7h154
			c0.7,0,1.3-0.2,1.9-1.3v-84.8H118.3C119.8,130.9,123.8,135.8,131.7,141.8z M411.7,50h-286c-4.4,0-7.9,2.4-7.9,5.4s3.6,5.4,7.9,5.4
			h286.1c4.4,0,7.9-2.4,7.9-5.4C419.6,52.3,416,50,411.7,50z M411.7,82.2h-47.6c-4.4,0-7.9,2.4-7.9,5.4s3.6,5.4,7.9,5.4h47.6
			c4.4,0,7.9-2.4,7.9-5.4S416,82.2,411.7,82.2z"/>
	</g>
</g>
</svg>
