<?xml version="1.0" encoding="utf-8"?>
<!-- Generator: Adobe Illustrator 23.0.6, SVG Export Plug-In . SVG Version: 6.00 Build 0)  -->
<svg version="1.1" id="Layer_1" xmlns="http://www.w3.org/2000/svg" xmlns:xlink="http://www.w3.org/1999/xlink" x="0px" y="0px"
	 viewBox="0 0 400 400" style="enable-background:new 0 0 400 400;" xml:space="preserve">
<style type="text/css">
	.st0{fill:#4D4D4D;}
</style>
<g>
	<path class="st0" d="M283.6,98.6c-8.5-5.7-18.3-8.6-28.5-8.6H54.4v126H332l2.9-8.4l-31.7-84.3C299.4,113.2,292.6,104.6,283.6,98.6z
		 M72.4,139.6l31.4-31.4c3.1-3,8.1-3,11.1,0c3,3.1,3,8.1,0,11.1l-31.4,31.4c-1.5,1.5-3.4,2.3-5.5,2.3s-4-0.7-5.6-2.3
		C69.4,147.6,69.4,142.6,72.4,139.6z M146.4,119.2l-63,63c-1.5,1.5-3.4,2.3-5.5,2.3c-1.9,0-4-0.8-5.5-2.3c-3-3.1-3-8.1,0-11.1
		l62.9-63c3.2-3,8.1-3,11.1,0C149.4,111.2,149.4,116.2,146.4,119.2z"/>
	<path class="st0" d="M388.3,189.4l-37-98.4C344,71.5,331,55.1,313.7,43.6c-16.2-11-35.1-16.7-54.7-16.7H42.5
		c-17.4,0-31.4,14.2-31.4,31.5v283.3c0,17.4,14.1,31.4,31.4,31.4h182.2c3.9,0,7.2-2.8,7.8-6.7c7.2-49.9,50.6-87.7,101.1-87.7
		c4.6,0,9.1,0.4,13.6,1c3.5,0.5,7-1.5,8.3-4.8l32.6-79.7C389,193.3,389.1,191.2,388.3,189.4z M219.7,326H46.6
		c-4.3,0-7.8-3.5-7.8-7.8s3.4-7.8,7.8-7.8h173c4.4,0,7.9,3.5,7.9,7.8S224.1,326,219.7,326z M329.8,263.1h-47.2
		c-4.3,0-7.8-3.4-7.8-7.8c0-4.3,3.4-7.8,7.8-7.8h47.2c4.3,0,7.9,3.4,7.8,7.8C337.6,259.6,334.2,263.1,329.8,263.1z M350.6,210
		l-5.5,16.2c-1.1,3.1-4,5.3-7.4,5.3H46.6c-2,0-4-0.8-5.5-2.3c-1.4-1.4-2.3-3.4-2.3-5.5V82.1c0-4.3,3.4-7.8,7.8-7.8h208.5
		c13.3,0,26.1,3.9,37.2,11.3c11.9,7.9,20.7,19,25.6,32.2l32.6,86.9C351.1,206.4,351.1,208.3,350.6,210z"/>
</g>
</svg>
