<?xml version="1.0" encoding="utf-8"?>
<!-- Generator: Adobe Illustrator 25.0.0, SVG Export Plug-In . SVG Version: 6.00 Build 0)  -->
<svg version="1.1" id="Layer_1" xmlns="http://www.w3.org/2000/svg" xmlns:xlink="http://www.w3.org/1999/xlink" x="0px" y="0px"
	 viewBox="0 0 400 400" style="enable-background:new 0 0 400 400;" xml:space="preserve">
<style type="text/css">
	.st0{fill:#4D4D4D;}
</style>
<path class="st0" d="M334.9,58H65.1C47,58,32.3,72.7,32.3,90.9v218.2c0,18.2,14.7,32.9,32.9,32.9h269.7c18.2,0,32.9-14.7,32.9-32.9
	V90.9C367.7,72.7,353,58,334.9,58z M326.6,292.1c0,6.6-5.4,12-12,12h-229c-6.6,0-12-5.4-12-12V107.9c0-6.6,5.4-12,12-12h229
	c6.6,0,12,5.4,12,12V292.1z"/>
<path class="st0" d="M125.8,254.5h148.4c14.1,0,21.2-17.1,11.2-27.1L208,150.1c-6.4-6.4-16.8-6.2-22.9,0.5l-71,77.4
	C104.8,238.1,112,254.5,125.8,254.5z"/>
</svg>
