<?xml version="1.0" encoding="utf-8"?>
<!-- Generator: Adobe Illustrator 23.0.6, SVG Export Plug-In . SVG Version: 6.00 Build 0)  -->
<svg version="1.1" id="Layer_1" xmlns="http://www.w3.org/2000/svg" xmlns:xlink="http://www.w3.org/1999/xlink" x="0px" y="0px"
	 viewBox="0 0 400 400" style="enable-background:new 0 0 400 400;" xml:space="preserve">
<style type="text/css">
	.st0{fill:#4D4D4D;}
	.st1{fill:#FFFFFF;}
</style>
<g>
	<ellipse class="st0" cx="222" cy="249.3" rx="95.8" ry="95.3"/>
	<g>
		<path class="st0" d="M221.5,358.2"/>
		<path class="st0" d="M245.4,122.5V144c47.9,10.9,83.8,53.8,83.8,104.9c0,59.3-48.3,107.6-107.6,107.6S114,308.2,114,248.9
			c0-51.1,35.9-94,83.8-104.9v-21.4C138.2,133.8,93,186.2,93,249c0,70.9,57.7,128.6,128.6,128.6S350.2,319.9,350.2,249
			C350.1,186.1,304.9,133.8,245.4,122.5z"/>
		<g>
			<path class="st0" d="M237.4,160.9h-27.1c-10.2,0-18.5-8.3-18.5-18.5v-27.1c0-10.2,8.3-18.5,18.5-18.5h27.1
				c10.2,0,18.5,8.3,18.5,18.5v27.1C255.9,152.6,247.6,160.9,237.4,160.9z M210.3,113.2c-1.2,0-2.1,1-2.1,2.1v27.1
				c0,1.2,1,2.1,2.1,2.1h27.1c1.2,0,2.1-1,2.1-2.1v-27.1c0-1.2-1-2.1-2.1-2.1H210.3z"/>
		</g>
		<g>
			<path class="st0" d="M63.9,233.7l-14-0.5C47.3,135,94.1,83.1,133.7,56.8c42.8-28.3,85.6-33.3,87.5-33.5l7.8-0.9v56.8l-6.7,0.3
				c-59.5,2.4-104.2,28.8-132.8,78.5C67.9,195.7,64,233.3,63.9,233.7z M215,38.5c-13.9,2.7-44.3,10.5-74,30.3
				c-33.4,22.2-56,52.3-67.8,89.8c1.2-2.3,2.5-4.7,3.8-7c20.9-36.4,61.6-80.2,138-85.6V38.5z"/>
		</g>
	</g>
	<g>
		<path class="st1" d="M166.5,286.2l14.6-68.5h9.2l14.6,68.5h-9.1l-3.1-17.3h-13.9l-3.3,17.3H166.5z M180.1,262.1h11.4l-5.7-30.9
			L180.1,262.1z"/>
		<path class="st1" d="M209,286.2l18.5-68.5h7.8l-18.5,68.5H209z"/>
		<path class="st1" d="M260.2,286.9c-2.8,0-5.3-0.4-7.5-1.2c-2.1-0.8-3.9-1.8-5.3-3.1c-1.4-1.3-2.5-3-3.3-4.9c-0.9-2-1.5-4-1.8-6.2
			s-0.5-4.6-0.5-7.3V240c0-2.9,0.2-5.5,0.5-7.7c0.3-2.3,0.9-4.4,1.8-6.3c0.9-2,2-3.6,3.3-4.8c1.4-1.3,3.1-2.3,5.3-3
			c2.1-0.7,4.6-1.1,7.5-1.1c6.2,0,10.6,1.7,13.3,5c2.7,3.3,4,8.2,4,14.7v5.5h-9v-4.8c0-1,0-1.9,0-2.5s0-1.3-0.1-2.2
			c0-0.9-0.1-1.6-0.2-2.1s-0.3-1.1-0.4-1.7c-0.2-0.7-0.4-1.2-0.7-1.5c-0.3-0.4-0.6-0.8-1-1.2s-0.9-0.7-1.4-0.9s-1.1-0.4-1.9-0.5
			c-0.7-0.1-1.5-0.2-2.4-0.2c-1.3,0-2.5,0.1-3.5,0.4c-1,0.3-1.8,0.7-2.4,1.4c-0.6,0.6-1.2,1.3-1.5,2c-0.4,0.7-0.7,1.7-0.9,2.9
			s-0.3,2.3-0.4,3.4c-0.1,1.1-0.1,2.4-0.1,4v27.1c0,5.1,0.6,8.7,1.9,10.7c1.3,2,3.6,3,6.9,3c1.3,0,2.4-0.1,3.3-0.4s1.7-0.7,2.3-1.4
			c0.6-0.6,1.1-1.3,1.4-2c0.4-0.7,0.6-1.6,0.8-2.8s0.3-2.3,0.3-3.2s0.1-2.3,0.1-3.9v-5h9v5.1c0,2.6-0.2,5-0.5,7
			c-0.3,2.1-0.9,4-1.7,5.8c-0.8,1.8-1.8,3.3-3.1,4.5s-2.9,2.1-5,2.8C265.2,286.6,262.9,286.9,260.2,286.9z"/>
	</g>
</g>
</svg>
