<?xml version="1.0" encoding="utf-8"?>
<!-- Generator: Adobe Illustrator 25.0.1, SVG Export Plug-In . SVG Version: 6.00 Build 0)  -->
<svg version="1.1" xmlns="http://www.w3.org/2000/svg" xmlns:xlink="http://www.w3.org/1999/xlink" x="0px" y="0px"
	 viewBox="0 0 512 512" style="enable-background:new 0 0 512 512;" xml:space="preserve">
<style type="text/css">
	.st0{opacity:0.5;}
	.st1{fill:#4D4D4D;}
</style>
<g class="st0">
	<g id="Layer_1">
	</g>
</g>
<g>
	<path class="st1" d="M402.9,445.1c-17.2,0-34.3,0-51.5,0c-1.7,0-3.5,0-5.6,0c0.5-1.3,0.7-2,1-2.5c7.4-15.3,5.7-27.9-5.6-40.5
		c-5.2-5.8-10.4-11.7-15.6-17.5c-16-17.9-31.9-35.8-48.2-54.1c8.2-9.3,16-18.2,24.1-26.8c1.6-1.7,4.4-2.8,6.7-2.9
		c9.2-0.3,18.4,0.5,27.5-0.4c5.7-0.6,11.8-2.5,16.7-5.3c16-9.3,15.1-40.8,4.2-50.5c-3-2.7-3.1-5-1.7-8.6c18.3-45.9,36.4-92,54.5-138
		c2.7-6.9,3.3-13.9,1.2-21c-4-13.6-15-22.3-29.2-23.4c-12.8-1-25.2,6.8-31.4,19.8c-14.3,30.1-28.6,60.2-42.7,90.3
		c-1.6,3.5-3.4,4.8-7.5,4.8c-43.2-0.2-86.3-0.1-129.5-0.1c-17.3,0-29.9,12.5-30,29.9c-0.1,10.5,0,21,0,31.5c0,1.7-0.2,3.5-0.3,5.5
		c-4.5,0-8.3-0.1-12.1,0c-10.5,0.4-18.4,5.3-23.7,14.3c-5,8.4-4.5,17.7-3.3,26.8c1.8,14.2,13.1,23.8,27.4,24.2
		c6,0.2,12.1,0.7,18-0.1c11.8-1.6,20.6,2,27.5,12c4.4,6.5,10.4,12,15.7,18c-3.5,3.9-6.6,7.4-9.7,10.9
		c-18.3,20.5-36.6,41.1-54.9,61.5c-7.9,8.8-11.1,18.9-8.5,30.5c0.9,3.9,2.8,7.6,4.4,11.8c-4.8,0-9.2,0-13.5,0
		c-4.2,0-6.5,2.4-6.9,6.4c-0.3,3.7,2.7,6.7,6.9,7c0.7,0.1,1.3,0,2,0c97.8,0,195.7,0,293.5,0c5.8,0,9.1-2.6,9-7
		C411.7,447.3,408.8,445.1,402.9,445.1z M362.5,79.1c4.2-8.8,11.8-13.2,20.5-11.7c7.8,1.3,14.3,7.8,15,15.9
		c0.3,3.5-0.5,7.4-1.8,10.7c-17.8,45.6-35.9,91.1-53.7,136.7c-1.5,3.7-3.2,4.9-7.2,4.8c-15.3-0.3-30.6-0.1-46.6-0.1
		c0.8-2.1,1.4-3.6,2.1-5C314.6,179.8,338.5,129.4,362.5,79.1z M154.3,195.6c0.3-8.1,7.2-13.4,15.8-13.4c31,0,62,0,92.9,0
		c11.5,0,22.9,0,35.3,0c-4.2,8.9-8.1,17.1-12,25.3c-3.8,8.1-7.6,16.3-11.7,24.3c-0.8,1.5-3,3.3-4.6,3.3c-38,0.2-76,0.1-113.9,0.1
		c-0.5,0-0.9-0.2-2-0.4C154.2,221.5,153.8,208.5,154.3,195.6z M181.7,300.9c11.6,0,22.3,0,34.1,0c-5.9,6.6-11.2,12.7-17,19.2
		C193,313.7,187.7,307.6,181.7,300.9z M136,440.4c-8.6-7.5-9-19.2-0.8-28.4c32-35.9,64-71.9,96-107.8c2.3-2.6,4.6-3.8,8.1-3.7
		c13.7,0.2,27.3,0.1,41,0.1c1.3,0,2.5,0,4.6,0c-1.1,1.7-1.6,2.7-2.3,3.4c-39.6,44.5-79.3,89-119,133.5
		C155.5,446.4,144.1,447.6,136,440.4z M175.6,444.6c19.4-21.8,38.4-43.2,57.8-65c19.5,21.9,38.4,43.1,57.9,65
		C252.6,444.6,214.7,444.6,175.6,444.6z M334.7,436.1c-4.5,7.2-12.9,10.6-21.2,8.1c-3.1-0.9-6.3-2.7-8.4-5
		c-20.8-23-41.3-46.1-62.4-69.7c8.6-9.7,16.9-18.9,25.5-28.6c9.4,10.5,18.6,20.8,27.8,31.1c12.2,13.7,24.4,27.3,36.6,41
		C338.5,419.8,339.2,428.8,334.7,436.1z"/>
</g>
</svg>
