<?xml version="1.0" encoding="utf-8"?>
<!-- Generator: Adobe Illustrator 23.0.6, SVG Export Plug-In . SVG Version: 6.00 Build 0)  -->
<svg version="1.1" id="Layer_1" xmlns="http://www.w3.org/2000/svg" xmlns:xlink="http://www.w3.org/1999/xlink" x="0px" y="0px"
	 viewBox="0 0 400 400" style="enable-background:new 0 0 400 400;" xml:space="preserve">
<style type="text/css">
	.st0{fill:#4D4D4D;}
</style>
<g>
	<g>
		<path class="st0" d="M295.8,355.8c-0.1,0-0.2,0-0.3,0l-172.1-2c-11.6-0.1-21.7-8.1-24.6-19.3L37.2,94.2c-1.7-6.8-0.7-13.9,3-19.9
			s9.5-10.1,16.4-11.6l26-5.6c12.1-2.6,24.3,3.7,29.1,15.1L169,208.5c0.5,1.2,1.7,1.9,2.9,1.9l164.8-7.6c8.8-0.4,17.1,3.7,22.2,10.9
			s6.1,16.4,2.7,24.6L319.5,340C315.5,349.6,306.2,355.8,295.8,355.8z M88,79.1c-0.2,0-0.4,0-0.6,0.1l-26,5.6
			c-1,0.2-1.6,0.9-1.9,1.4c-0.3,0.5-0.6,1.3-0.4,2.4l61.6,240.3c0.3,1.3,1.5,2.3,2.9,2.3l172.1,2l0,0c1.2,0,2.3-0.7,2.8-1.9
			l42.1-101.7c0.5-1.3,0.1-2.3-0.3-2.9c-0.4-0.6-1.2-1.3-2.6-1.3L172.9,233c-10.7,0.5-20.7-5.8-24.8-15.7L90.8,81
			C90.3,79.9,89.2,79.1,88,79.1z"/>
	</g>
	<g>
		<path class="st0" d="M292.7,111.8l-12.8-7.4l10.8-6.4c1.7-0.8,2.3-3.2,1.3-4.9c-1-1.7-3.2-2.1-4.8-1.2l-14.4,8.4L250,87l22.9-13.1
			l14.4,8.4c0.4,0.3,1,0.5,1.7,0.5c1.2,0,2.3-0.6,3.1-1.7c1-1.7,0.4-4-1.3-4.9L280,69.8l12.8-7.4c1.7-1,2.2-3.1,1.3-4.9
			c-0.9-1.7-3.2-2.3-4.9-1.3l-12.8,7.4l-0.2-12.8c0-2-1.5-3.6-3.5-3.6s-3.5,1.7-3.5,3.6l0.1,16.9l-22.7,13.1V54.4l14.3-8.1
			c1.7-0.9,2.4-3.1,1.4-4.9c-1-1.7-3.1-2.3-4.8-1.3l-10.9,6.2V31.7c0-2-1.6-3.6-3.6-3.6s-3.5,1.6-3.5,3.6v14.7l-11.3-6.3
			c-1.8-1-3.8-0.4-4.7,1.3c-1,1.7-0.4,3.9,1.3,4.9l14.7,8.3V81l-23.2-13.4l0.1-16.5c0.2-1.9-1.5-3.6-3.5-3.6h-0.1
			c-1.9,0-3.5,1.6-3.5,3.6l-0.1,12.4l-12.5-7.2c-1.7-1-3.9-0.4-4.8,1.3c-1,1.8-0.5,3.9,1.3,4.9l12.6,7.3l-11,6.6
			c-1.7,0.8-2.3,3.2-1.2,4.9c0.7,1.1,1.7,1.7,3,1.7c0.7,0,1.3-0.2,1.9-0.5l14.4-8.5L236,87.3l-23.1,13.4l-14.4-8.5
			c-1.7-1-4-0.5-4.9,1.2c-1,1.8-0.4,3.9,1.2,4.9l11,6.5l-12.6,7.4c-1.7,1-2.3,3.1-1.3,4.9c0.7,1.2,1.7,1.8,3,1.8
			c0.3,0,1-0.2,1.8-0.5l12.5-7.2l0.1,12.4c0,2,1.7,3.5,3.5,3.5h0.1c2,0,3.5-1.7,3.5-3.7l-0.1-16.5l23.2-13.3v26.3l-14.7,8.3
			c-1.8,1-2.4,3.1-1.3,4.9c0.7,1.2,1.7,1.8,3,1.8c0.6,0,1.2-0.1,1.7-0.4l11.3-6.4v14.6c0,2,1.5,3.5,3.5,3.5s3.6-1.5,3.6-3.5V128
			l10.9,6.2c0.5,0.3,1.1,0.4,1.7,0.4c1.4,0,2.4-0.6,3.1-1.8c1-1.7,0.3-3.9-1.4-4.9l-14.3-8V93.2l22.7,13.1l-0.1,16.8
			c0,2,1.5,3.7,3.5,3.7s3.5-1.5,3.5-3.5l0.2-12.9l12.8,7.5c0.5,0.3,1.2,0.4,1.9,0.4c1.3,0,2.3-0.6,3-1.7
			C295.1,114.9,294.4,112.7,292.7,111.8z"/>
	</g>
	<path class="st0" d="M210.9,153l25.7,47.5l-15.1-0.2c0,0,7.6,36.8-8,69.5s-14.2,67.1,3.8,102.1h-23.9c0,0-6.8-10.1-10.8-30.8
		c-5.1-26.7-0.9-54.3,9.8-79.4c6.3-14.8,12.7-36.9,9.6-62l-13.3,0.4L210.9,153z"/>
	<path class="st0" d="M271.3,151.9l25.7,47.5l-15.1-0.2c0,0,7.6,36.8-8,69.5s-14.2,67.1,3.8,102.1h-23.8c0,0-6.8-10.1-10.8-30.8
		c-5.1-26.7-0.9-54.3,9.8-79.4c6.3-14.8,12.7-36.9,9.6-62l-13.3,0.4L271.3,151.9z"/>
</g>
</svg>
