<?xml version="1.0" encoding="utf-8"?>
<!-- Generator: Adobe Illustrator 23.0.6, SVG Export Plug-In . SVG Version: 6.00 Build 0)  -->
<svg version="1.1" id="Layer_1" xmlns="http://www.w3.org/2000/svg" xmlns:xlink="http://www.w3.org/1999/xlink" x="0px" y="0px"
	 viewBox="0 0 512 512" style="enable-background:new 0 0 512 512;" xml:space="preserve">
<style type="text/css">
	.st0{fill:#4D4D4D;}
</style>
<g>
	<path class="st0" d="M259.2,271.8c-4.6,2.2-9.2,4.5-13.9,6.7c-10.2,5-15.6,16.5-13,27.7c2,8.7,9.1,15.8,17.8,17.8
		c11.3,2.6,22.7-2.8,27.7-13c2.2-4.6,4.5-9.1,6.6-13.8c6.9-14.5,14.1-29.5,22.5-43.6l6.4-10.8l-10.8,6.4
		C288.5,257.8,273.6,264.9,259.2,271.8"/>
	<polygon class="st0" points="191.1,405.9 320.8,405.9 320.8,373.4 191.1,373.4 	"/>
	<path class="st0" d="M344,223.5l-23.1,38.6c-8.1,13.6-15,28.1-21.8,42.3c-2.2,4.7-4.5,9.2-6.7,13.9c-6.9,14.2-21.2,22.7-36.6,22.7
		c-3.1,0-6.2-0.3-9.3-1.1c-14.8-3.4-26.7-15.1-30-30c-4.2-18.7,4.7-37.6,21.7-45.8c4.7-2.2,9.3-4.5,14.1-6.7
		c14.1-6.7,28.7-13.7,42.2-21.8l38.5-23.1c3.2-1.9,7.2-1.3,9.9,1.2C345.4,216.2,345.9,220.2,344,223.5L344,223.5z M336.9,414
		c0,4.5-3.7,8.1-8.1,8.1H183c-4.5,0-8.1-3.7-8.1-8.1v-48.6c0-4.5,3.7-8.1,8.1-8.1h146c4.5,0,8.1,3.7,8.1,8.1L336.9,414L336.9,414z
		 M439.4,386.4c-4-1.8-5.9-6.7-4-10.8c1.8-4,6.6-5.9,10.8-4l36.5,16.7c9.8-25.3,15.3-52.2,16.2-79.9h-72.6c-4.5,0-8.1-3.7-8.1-8.1
		c0-4.4,3.7-8.1,8.1-8.1h72.9c-1-27.5-6.4-53.8-15.7-78.3l-36.1,17.2c-1.2,0.6-2.3,0.8-3.6,0.8c-3,0-6-1.7-7.3-4.6
		c-1.9-4-0.2-8.9,3.9-10.8l36.8-17.6c-11.2-24.5-26.4-46.6-44.6-65.8l-27.2,29.4c-1.6,1.7-3.8,2.6-6,2.6c-1.9,0-3.9-0.8-5.6-2.1
		c-3.3-3.1-3.6-8.2-0.4-11.6l27.5-29.8c-18.6-16.9-39.6-31.2-62.4-41.8l-16.6,37.1c-1.3,3-4.2,4.8-7.3,4.8c-1.1,0-2.2-0.2-3.3-0.8
		c-4-1.8-5.9-6.6-4-10.8l16.6-36.6c-24.9-9.7-51.7-15.3-79.7-16.2v72.7c0,4.5-3.7,8.1-8.1,8.1c-4.5,0-8.1-3.7-8.1-8.1V57.4
		c-26.2,0.9-51.5,5.9-75.1,14.4l14.3,38c1.6,4.1-0.6,8.9-4.7,10.5c-1,0.3-1.9,0.6-2.9,0.6c-3.3,0-6.4-2-7.6-5.2L157.7,78
		c-25.1,11.1-48.1,26.5-68,45l28.5,28.5c3.2,3.2,3.2,8.3,0,11.6c-1.6,1.6-3.7,2.3-5.8,2.3c-2.1,0-4.1-0.8-5.8-2.3l-28.5-28.5
		c-17.4,18.7-32,40-42.8,63.4l36.9,16.7c4,1.8,5.9,6.6,4,10.8c-1.3,3-4.2,4.8-7.3,4.8c-1.1,0-2.2-0.2-3.3-0.8l-36.6-16.6
		c-9.7,24.8-15.3,51.7-16.2,79.6h72.7c4.5,0,8.1,3.7,8.1,8.1s-3.7,8.1-8.1,8.1H12.9c0.9,26.7,6,52.5,15,76.9l36.9-16
		c4.1-1.8,8.9,0.1,10.7,4.2c1.8,4-0.1,8.9-4.2,10.7L34,400.6c8.1,17.9,18.6,35,31.1,50.9c1.5,1.9,3.9,3.1,6.4,3.1h368.6
		c2.4,0,4.8-1.2,6.4-3.1c11.9-15,21.8-31.1,29.7-48.1L439.4,386.4z"/>
</g>
</svg>
