<svg xmlns="http://www.w3.org/2000/svg" width="16.838" height="16" viewBox="0 0 16.838 16">
  <g id="Group_3579" data-name="Group 3579" transform="translate(0 0)">
    <path id="Path_2710" data-name="Path 2710" d="M14232.8,441.566l-6.333,5.556v1.554h13.638v-7.11Z" transform="translate(-14224.813 -439.866)" fill="#d1d1d1"/>
    <g id="Group_3576" data-name="Group 3576">
      <path id="Path_2703" data-name="Path 2703" d="M9.42,374.208H2.2a.2.2,0,0,0-.137.043L-4.256,379.7a.205.205,0,0,0-.077.154v1.725a.218.218,0,0,0,.218.211H9.42a.221.221,0,0,0,.221-.211V374.4A.206.206,0,0,0,9.42,374.208Zm-.2,7.162H-3.914v-1.421l6.191-5.322H9.222Z" transform="translate(5.8 -372.705)" fill="#4d4d4f"/>
      <path id="Path_2704" data-name="Path 2704" d="M353.877,421.059a.21.21,0,0,0,.21-.21v-3.555a.21.21,0,0,0-.419,0v3.555A.21.21,0,0,0,353.877,421.059Z" transform="translate(-339.693 -414.085)" fill="#4d4d4f"/>
      <path id="Path_2705" data-name="Path 2705" d="M353.877,394.108a.21.21,0,0,0,.21-.21v-.171a.21.21,0,0,0-.419,0v.171A.21.21,0,0,0,353.877,394.108Z" transform="translate(-339.693 -391.342)" fill="#4d4d4f"/>
      <path id="Path_2706" data-name="Path 2706" d="M-30.71,331.218h-7.7a1.221,1.221,0,0,0-.8.3l-6.7,5.824a1.22,1.22,0,0,0-.419.92v2.909l.779,4.754a1.547,1.547,0,0,0,1.529,1.29h12.98a1.561,1.561,0,0,0,1.551-1.561V332.443A1.226,1.226,0,0,0-30.71,331.218Zm.8,14.439a1.142,1.142,0,0,1-1.132,1.142h-12.98a1.133,1.133,0,0,1-1.116-.945l-.773-4.707v-2.881a.8.8,0,0,1,.274-.6l6.7-5.827a.8.8,0,0,1,.522-.2h7.7a.806.806,0,0,1,.8.806Z" transform="translate(46.333 -331.218)" fill="#4d4d4f"/>
      <path id="Path_2707" data-name="Path 2707" d="M283.453,608.218h-2.49a.716.716,0,1,0,0,1.432h2.49a.716.716,0,0,0,0-1.432Zm0,1.013h-2.49a.3.3,0,1,1,0-.594h2.49a.3.3,0,1,1,0,.594Z" transform="translate(-268.838 -598.541)" fill="#4d4d4f"/>
    </g>
  </g>
</svg>
