<?xml version="1.0" encoding="utf-8"?>
<!-- Generator: Adobe Illustrator 23.0.6, SVG Export Plug-In . SVG Version: 6.00 Build 0)  -->
<svg version="1.1" id="Layer_1" xmlns="http://www.w3.org/2000/svg" xmlns:xlink="http://www.w3.org/1999/xlink" x="0px" y="0px"
	 viewBox="0 0 512 512" style="enable-background:new 0 0 512 512;" xml:space="preserve">
<style type="text/css">
	.st0{fill:#4D4D4D;}
</style>
<g>
	<path class="st0" d="M478,80.4L431.6,34c-25.9-25.9-67.9-25.9-93.8,0L170.7,201.1c-23.4,23.4-25.9,60.3-6.2,86.7L26.7,425.6
		c-16.3,16.6-16.2,43.3,0.4,59.7c16.5,16.2,42.8,16.2,59.3,0l137.8-137.8c26.3,19.8,63.3,17.3,86.7-6.2L478,174.2
		C503.9,148.3,503.9,106.3,478,80.4z M56.7,481.6c-14.4,0-26.1-11.7-26.1-26.1c0-6.9,2.7-13.6,7.7-18.5l137.3-137.3l16.7,16.7
		L62.7,445.9c-6.3,6.3-6.3,16.5,0,22.8l8.4,8.4C66.8,480,61.8,481.6,56.7,481.6z M82.8,466.2l-8.8-8.8L203.4,328l8.8,8.8L82.8,466.2
		z M284.6,275c0,2.2-0.8,4.2-2.3,5.7l-8.1,8.1c-3.1,3.1-8.2,3.1-11.3,0l-40.2-40.2c-3.1-3.1-3.1-8.2,0-11.3l8.1-8.1
		c1.5-1.5,3.5-2.3,5.7-2.3h8.1v-16.2h16.1v16.2c2.2,0,4.2,0.8,5.7,2.3l15.9,15.9c1.5,1.5,2.3,3.5,2.3,5.7L284.6,275L284.6,275z
		 M319.4,248.7l-56.3-56.3l11.4-11.4l56.3,56.3L319.4,248.7z M350,197.3l-12,12c-3.1,3.1-8.2,3.1-11.3,0l-24.2-24.2
		c-3.1-3.1-3.1-8.2,0-11.3l12-12l11.3,11.3l-6.3,6.3l12.8,12.8l6.3-6.3c1.5-1.5,2.5-3.6,2.6-5.8c0.3-5-3.5-9.3-8.5-9.6l0.9-16.1
		c6.2,0.4,12,3,16.4,7.4C359.9,171.7,359.9,187.4,350,197.3z M383.8,184.3L327.5,128l11.4-11.4l56.3,56.3L383.8,184.3z M415.2,131.9
		l-12,12c-3.1,3.1-8.2,3.1-11.3,0l-24.2-24.2c-3.1-3.1-3.1-8.2,0-11.3l12-12c9.9-9.9,25.8-9.9,35.5,0
		C425.1,106.1,425.1,122,415.2,131.9z"/>
	<polygon class="st0" points="268.7,254.3 257.4,243 239.9,243 268.7,271.8 	"/>
	<path class="st0" d="M391.1,107.7l-6.3,6.3l12.8,12.8l6.3-6.3c3.7-3.5,3.5-9.1,0-12.8C400.3,104.2,394.6,104.2,391.1,107.7z"/>
</g>
</svg>
