<?xml version="1.0" encoding="utf-8"?>
<!-- Generator: Adobe Illustrator 23.0.6, SVG Export Plug-In . SVG Version: 6.00 Build 0)  -->
<svg version="1.1" id="Layer_1" xmlns="http://www.w3.org/2000/svg" xmlns:xlink="http://www.w3.org/1999/xlink" x="0px" y="0px"
	 viewBox="0 0 512 512" style="enable-background:new 0 0 512 512;" xml:space="preserve">
<style type="text/css">
	.st0{fill:#4D4D4D;}
</style>
<g>
	<path class="st0" d="M77,388.2c0,0,15.6,51.8,60.7,43s100.1-42,219.4-2c0,0,54,19.7,75.7-41c0,0,29.2-25.1,37.6,5.5
		S456,498.5,408.4,502H98.7c0,0-42-8.4-54-61.7c0,0-7.1-28.7-4.1-49.4C40.8,390.8,51.2,365.4,77,388.2z"/>
	<path class="st0" d="M375,136.2c-16.6-52.5-50.9-49.1-50.9-49.1h-22.6v-16h21.6c0,0,17.3,2.4,7.1-26.4
		c-10.2-28.8-16-34.6-32.5-34.6h-87.5c0,0-17.9-2.6-26,24.4c-8.2,27.2-7.9,35.1,2,36.6h22.9v15.7h-17.8
		c-20.3-0.6-32.9,8.8-38.6,16.7c-5.9,7.9-14,28.2-14,28.2c-29.9,63.7-34,156.5-37,196.3s0.7,58.3,19.7,73.3
		c19.1,15,34.3,5.5,34.3,5.5c-14.8-24.4-6.1-67.6-3.4-123.5c2.7-56,21.7-93.6,28.2-114.9s30.2-21.7,30.2-21.7s74.7-0.7,92.6,0.6
		c17.9,1.4,26.4,18.7,26.4,18.7c29.2,61.7,31.5,150.6,34.3,190.6s-7.5,50.2-7.5,50.2c47.7,1.4,51.8-35.3,51.8-35.3
		C409.9,214.2,391.6,188.8,375,136.2z M224.5,86.8V71.1h61.7V87L224.5,86.8z"/>
	<g>
		<path class="st0" d="M162.3,359.7h186.1c0.1-3.7,0-7.7-0.1-12H162.2C162.2,352.3,162.2,356.3,162.3,359.7z"/>
		<path class="st0" d="M348.2,364.7H162.4c0.1,4.1,0.2,6.5,0.2,6.5c0,1.7,0.1,3.5,0.4,5h184.1C347.6,372.6,348,368.8,348.2,364.7z"
			/>
		<path class="st0" d="M163.1,316c-0.2,3.7-0.4,7.4-0.6,10.8h184.6c-0.2-3.5-0.5-7.1-0.7-10.8H163.1z"/>
		<path class="st0" d="M164.9,294.6h180c-0.1-1.9-0.2-3.6-0.4-5.5c-0.1-1.4-0.2-2.7-0.4-4.2H166
			C165.6,288.3,165.3,291.4,164.9,294.6z"/>
		<path class="st0" d="M164.4,299.6c-0.4,4-0.6,7.7-0.9,11.5h182.6c-0.2-3.7-0.6-7.5-0.9-11.5H164.4z"/>
		<path class="st0" d="M315.7,169.1c-7.6-13-18.7-10.8-18.7-10.8s-74.7,0-87.1,0c-8.5,0-13.6,6.6-16,10.8H315.7z"/>
		<path class="st0" d="M188.2,183.7h133.4c-1.1-3-2-5.7-2.9-8.2c-0.1-0.5-0.4-1-0.6-1.5H191.7C190.4,177.3,189.3,180.4,188.2,183.7z
			"/>
		<path class="st0" d="M162.4,331.9c-0.1,3.9-0.2,7.5-0.2,10.8h186c-0.1-3.5-0.4-7.1-0.5-10.8H162.4z"/>
		<path class="st0" d="M167.9,270.2c-0.5,3.2-0.9,6.5-1.2,9.7h177c-0.4-3.2-0.7-6.5-1.1-9.7H167.9z"/>
		<path class="st0" d="M181.5,205.1c-1,3.6-2,7.2-2.9,10.8h153.3c-1-3.9-2.1-7.5-3.1-10.8H181.5z"/>
		<path class="st0" d="M163.8,381.1c2.1,11,6.9,15.5,6.9,15.5c86.1-24.4,168.1,1.6,168.1,1.7c3.6-4.5,6-10.2,7.5-17.2H163.8z"/>
		<path class="st0" d="M186.6,188.7c-1.2,3.9-2.5,7.6-3.6,11.5h144.2c-1.4-4.1-2.6-8-3.9-11.5H186.6z"/>
		<path class="st0" d="M177.4,220.9c-0.9,3.6-1.7,7.2-2.5,10.8h160.9c-0.9-3.7-1.7-7.4-2.6-10.8H177.4z"/>
		<path class="st0" d="M170.5,253.9c-0.6,3.9-1.2,7.7-1.9,11.5h173.3c-0.5-4-1.1-7.7-1.7-11.5H170.5z"/>
		<path class="st0" d="M173.7,236.8c-0.9,4-1.6,8.1-2.4,12h167.9c-0.7-4.1-1.5-8.2-2.4-12H173.7z"/>
	</g>
</g>
</svg>
