<?xml version="1.0" encoding="utf-8"?>
<!-- Generator: Adobe Illustrator 23.0.6, SVG Export Plug-In . SVG Version: 6.00 Build 0)  -->
<svg version="1.1" id="Layer_1" xmlns="http://www.w3.org/2000/svg" xmlns:xlink="http://www.w3.org/1999/xlink" x="0px" y="0px"
	 viewBox="0 0 400 400" style="enable-background:new 0 0 400 400;" xml:space="preserve">
<style type="text/css">
	.st0{fill:#4D4D4D;}
</style>
<g>
	<g>
		<path class="st0" d="M136.3,120.9c-3.4-6.8-11.5-9.5-18.3-6.1l-35.6,17.9c5-13.2,10-26.8,9.5-41.2c-0.3-7.5-6.6-13.4-14.2-13.2
			s-13.4,6.5-13.2,14.1c0.3,9.1-3.7,19.8-7.9,31.2c-2.9,7.9-6.2,16.7-8.1,26.1l-33.4,16.7c-6.8,3.3-9.5,11.5-6.1,18.3
			c2.4,4.8,7.2,7.6,12.3,7.6c2.1,0,4.2-0.4,6.1-1.5l22.2-11.1c2.7,8.2,7.9,16.3,16.5,23.9c0.1,0.1,0.2,0.2,0.3,0.3l-51.3,25.7
			c-6.8,3.3-9.5,11.5-6.1,18.3c2.4,4.8,7.2,7.6,12.3,7.6c2.1,0,4.2-0.4,6.1-1.5l48-24c-1.1,6.7-3.8,14.2-7.4,23.5
			c-1.8,4.9-3.7,10.1-5.4,15.6l-47.5,23.7c-6.7,3.3-9.4,11.5-6.1,18.3c2.4,4.8,7.2,7.6,12.3,7.6c2.1,0,4.2-0.5,6.1-1.5L59,301.4
			c1.7,10.9,6.9,21.9,18.5,32.1c2.6,2.3,5.8,3.4,9,3.4c3.8,0,7.6-1.6,10.3-4.7c5-5.7,4.4-14.3-1.2-19.2c-8.7-7.6-10.9-15.3-9.5-25.1
			l44.3-22.1c6.8-3.4,9.5-11.5,6.1-18.3s-11.5-9.5-18.3-6.1l-20.3,10.2c3.6-10.9,6.5-23,5-35.1l27.5-13.8c6.8-3.3,9.5-11.5,6.1-18.3
			s-11.5-9.5-18.3-6.1l-26.5,12.9c-2.2-2.7-4.8-5.4-7.8-8.1c-5.8-5.1-8.7-10.2-9.6-15.9l55.8-27.9
			C137,135.8,139.7,127.6,136.3,120.9L136.3,120.9z"/>
	</g>
	<path class="st0" d="M339.5,98.2c-30-22-67.3-35.1-100-35.1c-32.8,0-57.1,13.2-72,39.3c-11.7,20.5-17.5,48.3-17.5,85.1
		c0,36.9,5.7,64.7,17.5,85.1c15,26.1,39.3,39.3,72,39.3c32.6,0,69.9-13.1,100-35.1c34.1-25,52.9-56.7,52.9-89.4
		S373.7,123.2,339.5,98.2z M177.3,187.4c0-78.2,27.4-94.5,54.1-96.9c10.3,21,45.6,105,2.7,193.9C206.5,283,177.3,268.3,177.3,187.4z
		 M323.4,254.8c-1.8,1.3-3.7,2.6-5.5,3.9c14.1-15.2,25.2-37.8,28.5-71.4c0,0-5.7-51.7-46.3-81.4c8.2,4,16,8.8,23.3,14.1
		c26.5,19.4,41.8,44,41.8,67.3S349.9,235.4,323.4,254.8z"/>
	<g>
		<ellipse class="st0" cx="214.8" cy="187.9" rx="16.2" ry="63.9"/>
	</g>
</g>
</svg>
