<?xml version="1.0" encoding="utf-8"?>
<!-- Generator: Adobe Illustrator 27.4.0, SVG Export Plug-In . SVG Version: 6.00 Build 0)  -->
<svg version="1.1" id="Layer_1" xmlns="http://www.w3.org/2000/svg" xmlns:xlink="http://www.w3.org/1999/xlink" x="0px" y="0px"
	 viewBox="0 0 512 512" style="enable-background:new 0 0 512 512;" xml:space="preserve">
<style type="text/css">
	.st0{fill:#4D4D4D;}
</style>
<path class="st0" d="M301.1,289.8c0,1.7,0,2.6,0,3.6c0,32,0,64.1-0.1,96.1c0,2.4,0.5,3.5,3.1,3.8c14.7,1.9,22.5,15.6,17.8,29.8
	c-2.9,8.7-9.7,13.3-18.8,14.2c-3.3,0.3-6.6,0.6-9.9,0.6c-63.4,0-126.8,0.1-190.2,0c-6.5,0-13.1-0.2-18.9-4
	c-7.7-5-11.1-13.6-9.2-23.6c1.5-8.2,8.2-14.9,16.6-16.7c5-1.1,5-1.1,5-6.3c0-87.5,0-175,0.1-262.5c0-12.4,2.6-24.1,11-33.8
	c8.5-9.8,19.1-15.3,32-16.3c4.6-0.4,9.3-0.6,13.9-0.6c32.3,0,64.6-0.1,97,0c12.9,0.1,24.9,2.9,34.9,11.9
	c9.5,8.5,14.3,19.2,15.1,31.7c0.4,5.9,0.6,11.7,0.6,17.6c0,39.1,0,78.1,0,117.2c0,1.1,0,2.2,0,3.4c4.3,0.5,8.3,1,12.3,1.3
	c28.5,2.7,52.3,26.4,54.8,55c0.8,8.7,0.7,17.4,1.1,26.1c0.3,6.2,1.4,12.1,6.7,16.2c10.2,7.9,24.8,2.2,26.9-10.5
	c0.4-2.7,0.6-5.5,0.6-8.2c0-33.1,0-66.2,0.1-99.2c0-3.5-1.1-5.3-4.3-6.5c-9.8-3.8-17.3-10.4-23.1-19c-5.7-8.5-6.6-18.2-6.8-28
	c-0.2-12.5-0.1-25,0-37.5c0-2.2-0.6-3.8-2.1-5.3c-5.8-5.8-11.6-11.7-17.3-17.7c-2-2.1-3.9-4.4-5.4-6.9c-3.6-6.2-2.4-13.7,2.7-18.5
	c5.1-4.8,13.1-5.7,18.9-2c1.9,1.2,3.7,2.7,5.3,4.3c16.7,16.6,33.4,33.4,50.1,50c7.2,7.1,12.7,15.1,14.3,25.2
	c0.8,5,1.4,10.2,1.4,15.3c0.1,48,0.1,95.9,0,143.9c0,12.3-1.5,24.4-8.4,35.1c-10.5,16.3-30.7,26.5-51.6,22.4
	c-21.3-4.2-36.9-19.3-40.4-39.8c-1.3-7.7-1.3-15.6-1.8-23.5c-0.3-4.2-0.1-8.3-0.5-12.5c-1.2-11.5-10.4-21.8-21.7-24.3
	C309.4,290.2,305.4,290.2,301.1,289.8z M198.6,210.6c14.2,0,28.4,0,42.6,0c10.2,0,14.3-4.3,14.4-14.4c0-0.8,0-1.5,0-2.3
	c0-9.9,0-19.9,0-29.8c0-10.4,0.1-20.8-0.1-31.3c-0.1-8.5-3.4-12-11.7-13.2c-1.4-0.2-2.8-0.2-4.3-0.2c-13.6,0-27.1,0-40.7,0
	c-14.2,0-28.4-0.1-42.6,0c-10,0.1-14.4,3.9-14.5,13.4c-0.2,21.6-0.2,43.2,0,64.8c0.1,8,3.4,11.5,11.3,12.7c1.5,0.2,3,0.3,4.5,0.3
	C171.4,210.6,185,210.6,198.6,210.6z"/>
</svg>
