<?xml version="1.0" encoding="utf-8"?>
<!-- Generator: Adobe Illustrator 23.0.6, SVG Export Plug-In . SVG Version: 6.00 Build 0)  -->
<svg version="1.1" id="Layer_1" xmlns="http://www.w3.org/2000/svg" xmlns:xlink="http://www.w3.org/1999/xlink" x="0px" y="0px"
	 viewBox="0 0 400 400" style="enable-background:new 0 0 400 400;" xml:space="preserve">
<style type="text/css">
	.st0{fill:#4D4D4D;}
</style>
<path class="st0" d="M200,26.1l-151.7,87V287L200,373.9L351.7,287V113.1L200,26.1z M130,143.3L130,143.3c5.5,0.2,10.1,1.2,13.7,3.1
	c3.7,1.9,6.7,4.5,8.9,7.7s3.9,7.1,4.9,11.4c1,4.4,1.5,9.1,1.5,14.1v5.2h-18.8v-6.1c0-2.3-0.1-4.5-0.3-6.8s-0.6-4.4-1.3-6.4
	c-0.7-1.9-1.7-3.5-3.1-4.8c-1.4-1.3-3.2-2.1-5.6-2.3v-15.1H130z M126.8,158.6c-2.1,0.3-3.9,1-5.2,2.1c-1.4,1.2-2.4,2.5-3.2,4.1
	c-0.8,1.6-1.3,3.4-1.6,5.3c-0.3,1.9-0.5,3.9-0.5,5.7v48.7c0,1.9,0.1,3.7,0.4,5.6c0.3,1.9,0.8,3.6,1.5,5.2c0.7,1.6,1.8,3,3.1,4.1
	c1.4,1.1,3.1,1.8,5.2,2.1v15.1c0.1,0,0.1,0,0.2,0v0.1h-0.2v-0.1c-0.2,0-0.4,0-0.6,0c-0.3,0-0.5,0-0.8,0c-3.7,0-6.9-0.5-9.7-1.5
	c-2.8-1-5.3-2.4-7.3-4.2c-2.1-1.8-3.8-3.9-5.2-6.2c-1.4-2.3-2.6-4.8-3.4-7.5c-0.8-2.6-1.5-5.3-1.9-8.1s-0.6-5.4-0.6-8V181
	c0-5.1,0.5-9.9,1.4-14.3c1-4.5,2.6-8.4,4.9-11.8c2.3-3.4,5.4-6.1,9.2-8.1s8.6-3.2,14.3-3.3C126.8,143.5,126.8,158.6,126.8,158.6z
	 M159.7,254.6h-12.9l-2.8-8.3c-1.4,2.5-3.4,4.6-6,6.3s-5.3,2.9-8.3,3.5v-14.5v-0.1c2.2-0.2,4-0.8,5.4-2s2.4-2.6,3.2-4.2
	c0.8-1.7,1.3-3.5,1.5-5.5c0.3-1.9,0.4-3.9,0.4-5.7v-10.9h-7.9v-14h27.3v55.4H159.7z M201,158.5c-2.1,0.3-3.8,0.9-5.1,2.1
	c-1.3,1.1-2.3,2.5-3,4.2s-1.2,3.5-1.5,5.5s-0.4,3.9-0.4,5.9v47.7c0,1.9,0.1,3.9,0.4,5.9c0.3,2,0.7,3.8,1.5,5.5
	c0.7,1.7,1.7,3.1,3,4.2c1.3,1.1,3,1.8,5.1,2.1v15c-5.7-0.2-10.4-1.3-14.1-3.3c-3.7-2.1-6.8-4.8-9.1-8.2c-2.3-3.3-3.9-7.3-4.8-11.7
	c-1-4.4-1.4-9.2-1.4-14.2V181c0-5.1,0.5-9.9,1.4-14.4c1-4.5,2.6-8.4,4.8-11.8c2.3-3.3,5.3-6,9.1-8s8.5-3.1,14.1-3.3V158.5z
	 M203.9,143.4l0.2-0.1c5.2,0.2,9.6,1.2,13.2,3.1c3.6,1.9,6.5,4.4,8.7,7.5c2.2,3.2,3.8,6.9,4.8,11.2s1.4,8.9,1.4,13.9v8.4h-19v-9.3
	c0-2.2-0.1-4.4-0.3-6.6c-0.2-2.2-0.6-4.2-1.3-6c-0.6-1.9-1.5-3.4-2.8-4.6c-1.2-1.2-2.8-2-4.8-2.3L203.9,143.4L203.9,143.4z
	 M232.2,219.8c-0.1,4.8-0.6,9.3-1.4,13.6c-0.9,4.4-2.4,8.2-4.5,11.6c-2.1,3.3-5,6.1-8.6,8.2c-3.6,2.1-8.1,3.2-13.6,3.4v-15.1H204
	c2-0.3,3.5-1,4.8-2.3c1.2-1.2,2.1-2.8,2.8-4.6c0.6-1.9,1.1-3.9,1.3-6.1c0.2-2.3,0.3-4.4,0.3-6.7v-10.4h19V219.8z M271.8,158.5
	c-2.1,0.3-3.8,0.9-5.1,2.1c-1.3,1.1-2.3,2.5-3,4.2s-1.2,3.5-1.5,5.5s-0.4,3.9-0.4,5.9v47.7c0,1.9,0.1,3.9,0.4,5.9s0.7,3.8,1.5,5.5
	c0.7,1.7,1.7,3.1,3,4.2c1.3,1.1,3,1.8,5.1,2.1v15c-5.7-0.2-10.4-1.3-14.1-3.3c-3.7-2.1-6.8-4.8-9.1-8.2c-2.3-3.3-3.9-7.3-4.8-11.7
	c-1-4.4-1.4-9.2-1.4-14.2V181c0-5.1,0.5-9.9,1.4-14.4c1-4.5,2.6-8.4,4.8-11.8c2.3-3.3,5.3-6,9.1-8c3.8-2,8.5-3.1,14.1-3.3V158.5z
	 M274.7,143.4l0.2-0.1c5.2,0.2,9.6,1.2,13.2,3.1c3.6,1.9,6.5,4.4,8.7,7.5s3.8,6.9,4.8,11.2S303,174,303,179v8.4h-19v-9.3
	c0-2.2-0.1-4.4-0.3-6.6c-0.2-2.2-0.6-4.2-1.3-6c-0.6-1.9-1.5-3.4-2.8-4.6c-1.2-1.2-2.8-2-4.8-2.3v-15.2H274.7z M303,219.8
	c-0.1,4.8-0.6,9.3-1.4,13.6c-0.9,4.4-2.4,8.2-4.5,11.6c-2.1,3.3-5,6.1-8.6,8.2c-3.6,2.1-8.1,3.2-13.6,3.4v-15.1h-0.1
	c2-0.3,3.5-1,4.8-2.3c1.2-1.2,2.1-2.8,2.8-4.6c0.6-1.9,1.1-3.9,1.3-6.1c0.2-2.3,0.3-4.4,0.3-6.7v-10.4h19L303,219.8L303,219.8z"/>
</svg>
