<?xml version="1.0" encoding="utf-8"?>
<!-- Generator: Adobe Illustrator 23.0.6, SVG Export Plug-In . SVG Version: 6.00 Build 0)  -->
<svg version="1.1" id="Layer_1" xmlns="http://www.w3.org/2000/svg" xmlns:xlink="http://www.w3.org/1999/xlink" x="0px" y="0px"
	 viewBox="0 0 400 400" style="enable-background:new 0 0 400 400;" xml:space="preserve">
<style type="text/css">
	.st0{fill:#4D4D4D;}
</style>
<path class="st0" d="M358.1,59.3H41.8C22.4,59.3,6.5,75,6.5,94.5v210.9c0,19.3,15.7,35.3,35.3,35.3h316.5
	c19.3,0,35.3-15.9,35.3-35.3v-211C393.4,75,377.5,59.3,358.1,59.3L358.1,59.3z M323,305.3H76.8V94.4H323V305.3z"/>
<g>
	<g>
		<path class="st0" d="M271.4,156.4v-30.6c0-1.6-0.8-3.1-1.6-3.9s-2.4-0.8-3.9-0.8l-91,29c-1.6,0.8-3.1,2.4-3.1,3.9v88.6
			c-4.7-3.1-11-4.7-17.2-4.7c-7.1,0-13.4,2.4-18,5.5c-5.5,3.9-7.9,9.4-7.9,15c0,5.6,3.1,11,7.9,15c4.7,3.9,11,5.5,18,5.5
			c7.1,0,13.4-2.4,18-5.5c5.5-3.9,7.9-9.4,7.9-15v-70.5L262,162v51.7c-4.7-3.1-11-4.7-17.2-4.7c-7.1,0-13.4,2.4-18,5.5
			c-5.5,3.9-7.9,9.4-7.9,15s3.1,11,7.9,15c4.7,3.9,11,5.5,18,5.5c7.1,0,13.4-2.4,18-5.5c5.5-3.9,7.9-9.4,7.9-15v-72.9h0.6v-0.2
			H271.4z M154.6,270.9c-9.4,0-17.2-5.5-17.2-11.8s7.9-11.8,17.2-11.8c9.4,0,17.2,5.5,17.2,11.8C171.8,265.4,164,270.9,154.6,270.9
			L154.6,270.9z M180.4,179.1v-21.2L262,132v21.2L180.4,179.1z M245.6,241.9c-9.4,0-17.2-5.5-17.2-11.8s7.9-11.8,17.2-11.8
			c9.4,0,17.2,5.5,17.2,11.8C262.8,236.4,254.1,241.9,245.6,241.9L245.6,241.9z"/>
	</g>
</g>
</svg>
