<?xml version="1.0" encoding="utf-8"?>
<!-- Generator: Adobe Illustrator 23.0.6, SVG Export Plug-In . SVG Version: 6.00 Build 0)  -->
<svg version="1.1" id="Layer_1" xmlns="http://www.w3.org/2000/svg" xmlns:xlink="http://www.w3.org/1999/xlink" x="0px" y="0px"
	 viewBox="0 0 512 512" style="enable-background:new 0 0 512 512;" xml:space="preserve">
<style type="text/css">
	.st0{fill:none;}
	.st1{fill:#4D4D4D;}
</style>
<rect x="-765.8" y="194" class="st0" width="498.5" height="328"/>
<rect x="-765.8" y="194" class="st0" width="498.5" height="328"/>
<rect x="-765.8" y="194" class="st0" width="498.5" height="328"/>
<g>
	<path class="st1" d="M504.6,395.7c0-1.1-0.1-2.2-0.1-3.2c0-1.1-0.1-2.2-0.1-3.2v-0.9V388v-0.1v-1l0,0v-0.2l-0.1-1.4
		c-0.1-1.8-0.3-3.7-0.4-5.5l-0.1-1.4l-0.2-1.8c-0.1-1.2-0.2-2.4-0.3-3.6c-0.1-1.2-0.2-2.4-0.3-3.6c-0.1-0.5-0.1-1.2-0.2-1.7
		s-0.1-1.1-0.2-1.6c-0.6-4.3-1.1-8.6-1.8-12.7c-0.3-2.1-0.6-4-1.1-6.1c-0.4-1.9-0.8-3.9-1.2-5.7c-0.8-3.7-1.6-7.3-2.5-10.4
		c-0.2-0.8-0.4-1.6-0.5-2.4c-0.2-0.8-0.4-1.5-0.6-2.3c-0.4-1.4-0.8-2.8-1.2-4.1c-0.3-1.3-0.6-2.5-1.1-3.6c-0.3-1.1-0.6-2.2-1-3
		c-0.4-1.3-0.8-2.5-1.1-3.4c-0.4-1.3-1.8-2.1-3.1-1.7l-84.3,24c-1.3,0.3-2.1,1.6-1.8,2.9c0.1,0.5,0.2,1.1,0.3,1.7
		c0.1,0.6,0.2,1.3,0.4,2.1c0.1,0.8,0.2,1.6,0.4,2.5c0.1,0.9,0.3,1.8,0.4,2.8c0.1,0.5,0.1,1,0.2,1.5s0.1,1.1,0.2,1.6
		c0.2,2.2,0.5,4.5,0.8,7c0.1,1.3,0.2,2.6,0.3,3.9c0.1,1.3,0.1,2.7,0.2,4c0.2,2.7,0.1,5.6,0.2,8.4v1.1v1c0,0.6,0,1.3-0.1,1.9
		c0,0.6,0,1.3,0,1.9v1l-0.1,1.4c-0.1,1.8-0.1,3.7-0.2,5.5l-0.1,1.4v0.2l0,0c0,0.2,0-1.6,0-0.9v0.1v0.3v0.5c-0.1,0.8-0.1,1.4-0.2,2.2
		c-0.1,0.8-0.1,1.4-0.2,2.2c-0.1,0.8-0.2,1.4-0.2,2.1c-0.2,1.4-0.3,2.8-0.5,4.1c-0.2,1.3-0.4,2.7-0.5,4c-0.2,1.3-0.4,2.5-0.6,3.8
		c-0.2,1.2-0.4,2.4-0.6,3.6s-0.4,2.3-0.6,3.2c-0.2,1.1-0.4,2.1-0.6,3c-0.1,0.4-0.2,1-0.3,1.4c-0.1,0.4-0.2,0.8-0.3,1.1
		c-0.1,0.2-0.1,0.4-0.2,0.6h103.1c1.4,0,2.5-1.1,2.6-2.5l0,0c0.1-1.9,0.2-3.9,0.2-6s0.1-4.1,0.1-6.2c0.1-2.1,0-4.2,0-6.4
		C504.6,397.9,504.6,396.8,504.6,395.7L504.6,395.7z"/>
	<path class="st1" d="M477.7,287.6c1.4-0.5,2.1-2.2,1.4-3.5c-0.3-0.6-0.6-1.3-1-2.1s-0.8-1.5-1.2-2.5c-0.5-1.1-1.2-2.4-1.7-3.7
		c-0.6-1.3-1.3-2.7-2.1-4.1c-0.3-0.8-0.8-1.4-1.1-2.1c-0.3-0.6-0.8-1.4-1.2-2.2c-0.8-1.4-1.6-2.9-2.5-4.4s-1.8-3.1-2.7-4.8
		c-0.4-0.8-1-1.6-1.4-2.5c-0.5-0.9-1-1.6-1.5-2.5c-1.1-1.6-2.2-3.4-3.2-5.1c-2.3-3.4-4.5-6.9-7.1-10.4c-0.6-0.9-1.3-1.7-1.8-2.6
		l-1-1.3l-1-1.3c-1.3-1.7-2.7-3.5-4-5.2s-2.7-3.4-4.1-5c-0.6-0.9-1.4-1.6-2.1-2.5c-0.8-0.8-1.4-1.6-2.2-2.4
		c-0.8-0.8-1.4-1.6-2.1-2.4c-0.6-0.8-1.4-1.6-2.2-2.4c-1.4-1.5-2.8-3-4.2-4.5c-1.4-1.5-2.8-2.8-4.2-4.2c-1.4-1.4-2.7-2.7-4.1-4
		s-2.7-2.5-3.9-3.7c-1.3-1.2-2.6-2.3-3.8-3.4c-1.2-1.1-2.4-2.1-3.5-3c-1.2-1-2.3-1.8-3.2-2.7s-1.9-1.6-2.8-2.4
		c-0.9-0.8-1.7-1.3-2.5-1.9c-1.1-0.9-1.9-1.5-2.7-2.1c-1.1-0.9-2.7-0.6-3.6,0.4l-45.2,54.8c-0.9,1.1-0.8,2.6,0.2,3.5
		c0.4,0.3,0.9,0.8,1.3,1.3c0.4,0.4,1,1,1.5,1.5s1.2,1.2,1.8,1.8c0.6,0.6,1.3,1.4,2.1,2.2c0.6,0.8,1.4,1.6,2.2,2.5
		c0.8,0.9,1.5,1.7,2.4,2.7c0.8,1,1.6,1.9,2.4,2.9c0.9,1,1.6,2.1,2.5,3.1c0.9,1.1,1.7,2.2,2.6,3.4c0.9,1.2,1.7,2.3,2.6,3.5
		c0.4,0.5,0.9,1.2,1.3,1.8s0.9,1.2,1.3,1.8s0.9,1.2,1.3,1.8s0.8,1.3,1.2,1.9c0.8,1.3,1.6,2.5,2.4,3.8c0.8,1.3,1.5,2.6,2.3,3.9l0.5,1
		l0.5,1c0.3,0.6,0.8,1.3,1.1,1.9c1.5,2.6,2.7,5.2,4,7.7c0.5,1.3,1.2,2.5,1.7,3.8c0.3,0.6,0.5,1.2,0.9,1.8c0.2,0.6,0.5,1.2,0.8,1.8
		c0.5,1.2,1,2.3,1.5,3.5c0.4,1.1,0.9,2.2,1.3,3.2c0.2,0.5,0.4,1.1,0.6,1.5s0.4,1,0.5,1.4c0.3,0.9,0.5,1.6,0.9,2.4
		c0.2,0.8,0.5,1.4,0.8,2.1c0.3,0.9,0.5,1.7,0.9,2.5c0.3,0.9,0.5,1.5,0.8,2.2c0.4,1.4,2.1,2.2,3.5,1.6L477.7,287.6z"/>
	<path class="st1" d="M247.4,189.7c0.6,0.1,1.4,0.2,2.3,0.3c0.9,0.1,1.7,0.3,2.7,0.4c1,0.2,1.9,0.3,3,0.5c1,0.1,1.8,0.3,2.9,0.5
		l28.6-58.3c-1.4-0.2-2.8-0.4-4.2-0.6c-1-0.1-1.8-0.3-2.8-0.4c-1-0.1-1.8-0.2-2.7-0.3c-1.8-0.2-3.6-0.4-5.2-0.6
		c-1.7-0.1-3.4-0.3-4.9-0.4c-1.6-0.1-3-0.3-4.5-0.3c-1.4-0.1-2.8-0.1-4.1-0.2c-1.3-0.1-2.5-0.1-3.6-0.2c-1.1,0-2.2,0-3,0
		c-1.3,0-2.4,0-3.2,0c-1.4,0-2.6,1.1-2.6,2.5l-2.6,54.3c-0.1,1.3,0.9,2.5,2.3,2.7C246,189.5,246.6,189.6,247.4,189.7L247.4,189.7z"
		/>
	<path class="st1" d="M324.1,219.7c0.8,0.5,1.5,1.1,2.2,1.6s1.3,1,1.9,1.4c0.2,0.2,0.6,0.5,1,0.8c0.3,0.2,0.6,0.5,1,0.8
		c0.8,0.5,1.3,1,1.8,1.4c1.2,0.9,2.9,0.5,3.7-0.6l37.2-56.8c0.9-1.3,0.4-2.9-0.9-3.7c-0.5-0.3-1.3-0.8-2.1-1.2
		c-0.3-0.2-0.8-0.4-1.1-0.6c-0.4-0.2-0.9-0.4-1.3-0.8c-1.1-0.5-2.2-1.2-3.5-1.8c-1.2-0.6-2.5-1.4-3.9-2.2c-1.3-0.6-2.7-1.3-4.1-2.1
		s-2.9-1.5-4.5-2.2c-1.6-0.8-3.2-1.5-4.9-2.3c-1.6-0.8-3.5-1.5-5.2-2.3s-3.6-1.5-5.4-2.3c-0.4-0.2-1-0.3-1.4-0.5l-16.1,69.8
		c0.9,0.5,1.7,1.2,2.6,1.7C322.4,218.5,323.3,219.1,324.1,219.7L324.1,219.7z"/>
	<path class="st1" d="M197.4,189.5c0.8-0.1,1.4-0.2,2.2-0.3s1.4-0.1,2.1-0.2c1.4-0.1,2.7-0.3,4-0.4c1.3-0.1,2.6-0.2,3.8-0.2
		c0.6,0,1.2-0.1,1.7-0.1s1.2-0.1,1.6-0.1c1,0,1.9,0,2.9-0.1c0.9,0,1.7,0,2.5-0.1c1,0,1.8,0,2.6,0c0.9,0,1.6,0,2.3,0
		c1.5,0,2.7-1.3,2.6-2.7l-3.4-51.2c-0.1-1.5-1.4-2.6-2.9-2.4c-0.6,0.1-1.4,0.2-2.3,0.3c-0.8,0.1-1.7,0.2-2.7,0.3
		c-1.2,0.2-2.4,0.3-3.7,0.5s-2.7,0.4-4.2,0.6c-0.8,0.1-1.4,0.2-2.2,0.4c-0.8,0.1-1.5,0.3-2.3,0.4c-1.5,0.3-3.1,0.6-4.8,1
		c-1.6,0.3-3.4,0.8-5.1,1.2c-0.9,0.2-1.7,0.4-2.6,0.6c-0.9,0.2-1.7,0.4-2.7,0.6c-1.8,0.4-3.7,1-5.5,1.5s-3.8,1.1-5.6,1.7
		c-1,0.3-1.9,0.5-2.8,0.9c-1,0.3-1.9,0.6-2.9,1c-1,0.3-1.9,0.6-2.9,1c-1,0.3-1.9,0.6-2.9,1.1c-1.9,0.8-3.8,1.5-5.7,2.2
		c-1.9,0.8-3.8,1.6-5.6,2.4c-1,0.4-1.8,0.8-2.8,1.2c-0.9,0.4-1.8,0.9-2.7,1.3c-0.9,0.4-1.8,0.9-2.7,1.3c-0.9,0.4-1.8,0.9-2.7,1.3
		c-1.7,0.9-3.5,1.7-5.2,2.6c-1.7,0.9-3.4,1.8-5,2.7s-3.2,1.7-4.7,2.6c-1.5,0.9-2.9,1.7-4.3,2.6c-1.4,0.9-2.7,1.7-4,2.5
		c-1.3,0.9-2.5,1.6-3.7,2.4s-2.3,1.5-3.2,2.3c-1,0.6-1.9,1.3-2.8,1.9c-0.9,0.6-1.6,1.2-2.4,1.7c-1,0.8-1.8,1.3-2.5,1.8
		c-1.1,0.9-1.4,2.4-0.6,3.6l21.2,31.3c0.8,1.1,2.3,1.5,3.4,0.8c0.5-0.3,1.2-0.6,1.9-1.1c0.6-0.3,1.3-0.8,2.1-1.2s1.6-0.9,2.5-1.3
		s1.8-1,2.8-1.5c1-0.4,2.1-1,3.2-1.5c1.1-0.5,2.3-1.1,3.5-1.6s2.5-1.1,3.8-1.6s2.6-1.1,4-1.6s2.8-1.2,4.2-1.6
		c1.4-0.5,2.9-1.1,4.4-1.6c0.8-0.3,1.5-0.5,2.3-0.8c0.8-0.2,1.5-0.5,2.3-0.8c0.8-0.2,1.5-0.5,2.3-0.8c0.8-0.2,1.5-0.4,2.4-0.6
		c1.5-0.4,3.1-0.9,4.7-1.3c1.6-0.4,3.1-0.8,4.8-1.2c0.8-0.2,1.5-0.3,2.4-0.5c0.8-0.2,1.5-0.3,2.4-0.5c0.8-0.2,1.5-0.3,2.3-0.5
		c0.8-0.1,1.5-0.3,2.3-0.4c1.5-0.2,3-0.5,4.5-0.8C194.5,189.9,196,189.6,197.4,189.5L197.4,189.5z"/>
	<path class="st1" d="M52.4,229.9c-0.5,0.8-1.1,1.6-1.7,2.4c-0.5,0.8-1.1,1.6-1.7,2.4c-0.5,0.8-1.1,1.6-1.6,2.5
		c-1.1,1.6-2.2,3.2-3.2,5c-1.1,1.7-2.1,3.4-3.1,5l-0.8,1.3l-0.8,1.3c-0.4,0.9-1,1.7-1.4,2.5c-1.9,3.4-3.7,6.7-5.4,10
		c-0.8,1.6-1.6,3.2-2.4,4.9c-0.4,0.8-0.8,1.6-1.2,2.4c-0.3,0.8-0.8,1.5-1.1,2.4c-0.6,1.5-1.4,3-2.1,4.4c-0.6,1.4-1.2,2.8-1.7,4.2
		s-1.1,2.6-1.6,3.9c-0.4,1.3-0.9,2.4-1.3,3.6c-0.4,1.1-0.8,2.2-1.2,3.1c-0.3,1-0.6,1.8-0.9,2.7c-0.3,1.1-0.6,1.9-0.9,2.7
		c-0.4,1.3,0.2,2.7,1.5,3.2l19.8,7.6c1.3,0.4,2.7-0.1,3.2-1.3c0.3-0.6,0.6-1.3,1.1-2.2c0.3-0.6,0.6-1.4,1.1-2.3
		c0.4-0.9,0.9-1.7,1.4-2.6c0.4-1,1-1.9,1.5-3s1.2-2.2,1.8-3.2c0.6-1.1,1.3-2.3,1.9-3.6c0.8-1.2,1.5-2.4,2.3-3.7
		c0.4-0.6,0.8-1.3,1.2-1.9s0.9-1.3,1.3-1.9c0.9-1.3,1.7-2.6,2.6-4c1.8-2.6,3.7-5.4,5.7-8.1c0.5-0.6,1-1.4,1.5-2.1l0.8-1l0.8-1
		c1.1-1.3,2.2-2.7,3.1-4c1.1-1.3,2.2-2.6,3.2-3.9c0.5-0.6,1.1-1.3,1.6-1.9c0.5-0.6,1.1-1.3,1.7-1.8c0.5-0.6,1.1-1.2,1.6-1.8
		s1.1-1.2,1.7-1.8c1.2-1.2,2.3-2.4,3.4-3.5c1.1-1.2,2.3-2.2,3.4-3.2c1.1-1.1,2.2-2.2,3.2-3c1.1-1,2.2-1.9,3.1-2.8c1-1,2.1-1.7,3-2.6
		c1-0.9,1.8-1.6,2.7-2.4c0.9-0.6,1.6-1.3,2.5-1.9c0.8-0.6,1.5-1.2,2.2-1.7c0.3-0.2,0.8-0.5,1.1-0.9c0.3-0.2,0.6-0.5,1-0.8
		c0.6-0.5,1.3-1,1.8-1.4c1.2-0.9,1.4-2.6,0.4-3.8L86,195.9c-1-1.1-2.7-1.2-3.8-0.2c-0.4,0.4-1.1,1-1.6,1.6c-0.3,0.3-0.5,0.5-0.9,0.9
		c-0.3,0.3-0.6,0.6-1.1,1c-0.8,0.8-1.6,1.6-2.5,2.5s-1.8,1.8-2.8,2.9c-1,1-1.9,2.1-2.9,3.1c-1,1.1-2.1,2.3-3.1,3.5
		c-1.1,1.2-2.2,2.5-3.2,3.8c-1.1,1.3-2.3,2.7-3.4,4c-1.1,1.4-2.3,2.8-3.5,4.3c-1.1,1.5-2.3,3-3.5,4.5
		C53.5,228.3,53,229.1,52.4,229.9L52.4,229.9z"/>
	<path class="st1" d="M11.4,322.5c-0.1,0.6-0.3,1.4-0.4,2.3c-0.1,0.8-0.3,1.6-0.5,2.6s-0.3,2.2-0.5,3.2c-0.2,1.2-0.4,2.5-0.6,3.8
		c-0.1,0.6-0.2,1.3-0.3,2.1c-0.1,0.6-0.2,1.4-0.3,2.1c-0.3,2.8-0.9,6-1.1,9.2c-0.2,1.6-0.3,3.4-0.5,5.1c-0.1,1.7-0.2,3.5-0.3,5.3
		c-0.3,3.6-0.3,7.3-0.4,11v1.4v1.4c0,1,0,1.8,0,2.8s0,1.9,0,2.8v1.4v1.4c0.1,1.9,0.1,3.8,0.2,5.7l0.1,1.4v0.4l0.1,1
		c0.1,0.9,0.1,1.8,0.2,2.7c0.1,0.9,0.1,1.8,0.2,2.7c0.1,1,0.2,1.8,0.3,2.8s0.2,1.8,0.3,2.7c0,0.4,0.1,0.9,0.1,1.4
		c0.1,0.4,0.1,0.9,0.2,1.3c0.2,1.7,0.4,3.5,0.6,5.2c0.2,1.7,0.5,3.4,0.8,5c0.2,1.6,0.5,3.1,0.8,4.7c0,0.1,0,0.2,0.1,0.3
		c0.2,1.2,1.3,2.2,2.6,2.2H20c1.5,0,2.7-1.3,2.6-2.7c0-0.4,0-0.8-0.1-1.2c-0.1-1.4-0.2-2.9-0.2-4.4s-0.1-3.1-0.1-4.8s0-3.2,0-5
		c0-0.4,0-0.9,0-1.3s0-0.9,0-1.3c0-0.9,0-1.7,0.1-2.5c0-0.9,0-1.7,0.1-2.6c0-0.9,0.1-1.8,0.1-2.7c0-0.9,0.1-1.8,0.1-2.7v-0.6v-0.3
		l0,0c0-0.1,0,0.1,0,0.1v-0.1v-0.2l0.1-1.3c0.1-1.7,0.3-3.6,0.4-5.3l0.1-1.3l0.1-1.3c0.1-0.9,0.2-1.7,0.3-2.6s0.2-1.7,0.3-2.6
		l0.1-1.3l0.2-1.3c0.5-3.5,1-6.8,1.6-10.1c0.3-1.6,0.5-3.2,0.9-4.8c0.3-1.5,0.6-3,1-4.5c0.6-2.9,1.4-5.7,2.1-8.2
		c0.2-0.6,0.3-1.3,0.4-1.8c0.2-0.6,0.3-1.2,0.5-1.7c0.3-1.1,0.6-2.2,1-3.1c0.3-1,0.5-1.9,0.9-2.8c0.3-0.9,0.5-1.7,0.9-2.5
		c0.3-0.9,0.5-1.5,0.8-2.2c0.4-1.4-0.3-2.9-1.8-3.4l-17.6-4.9C13.2,320.1,11.7,320.9,11.4,322.5L11.4,322.5z"/>
	<path class="st1" d="M209.4,413.1c5.7,2.8,11.7,4.1,17.6,4.1c14.9,0,29.2-8.3,36.2-22.6c1.3-2.7,2.4-5.7,3-8.7l40.7-176.7
		l15.5-67.3l9.6-41.7c1.1-4.9-2.7-8.1-6.6-8.1c-2.3,0-4.5,1.1-5.8,3.8L300,135.8l-28.8,59l-80.3,164.4
		C181.1,379.2,189.4,403.3,209.4,413.1L209.4,413.1z M228.5,356.1c10.9,0,19.7,8.9,19.7,19.7c0,10.9-8.9,19.7-19.7,19.7
		c-10.9,0-19.7-8.9-19.7-19.7C208.7,365,217.6,356.1,228.5,356.1L228.5,356.1z"/>
</g>
</svg>
