<?xml version="1.0" encoding="utf-8"?>
<!-- Generator: Adobe Illustrator 26.0.3, SVG Export Plug-In . SVG Version: 6.00 Build 0)  -->
<svg version="1.1" id="Layer_1" xmlns="http://www.w3.org/2000/svg" xmlns:xlink="http://www.w3.org/1999/xlink" x="0px" y="0px"
	 viewBox="0 0 512 512" style="enable-background:new 0 0 512 512;" xml:space="preserve">
<style type="text/css">
	.st0{fill:#4E4D4D;}
	.st1{enable-background:new    ;}
</style>
<g>
	<path class="st0" d="M433.6,0H78.4C35.2,0,0,35.2,0,78.4v355.2C0,476.8,35.2,512,78.4,512h355.2c43.2,0,78.4-35.2,78.4-78.4V78.4
		C512,35.2,476.8,0,433.6,0z M473.6,433.6c0,22.1-17.9,40-40,40H78.4c-22.1,0-40-17.9-40-40V78.4c0-22.1,17.9-40,40-40h355.2
		c22.1,0,40,17.9,40,40V433.6z"/>
	<g id="Repeat_Grid_1" transform="translate(-313 68)">
		<g transform="translate(313 -68)">
			<g id="Component_1_1" transform="translate(-313 68)">
				<g class="st1">
					<path class="st0" d="M710,169V207H588v122.6H550V207H428V169h122V46.4H588V169H710z"/>
				</g>
			</g>
		</g>
	</g>
</g>
</svg>
