<?xml version="1.0" encoding="utf-8"?>
<!-- Generator: Adobe Illustrator 24.1.0, SVG Export Plug-In . SVG Version: 6.00 Build 0)  -->
<svg version="1.1" id="Layer_1" xmlns="http://www.w3.org/2000/svg" xmlns:xlink="http://www.w3.org/1999/xlink" x="0px" y="0px"
	 viewBox="0 0 512 512" style="enable-background:new 0 0 512 512;" xml:space="preserve">
<style type="text/css">
	.st0{fill:#4D4D4F;}
</style>
<g>
	<path class="st0" d="M395,357.3c0,14.6-12.8,26.3-28.6,26.3s-28.6-11.8-28.6-26.3c0-14.6,12.8-26.3,28.6-26.3
		C382.1,330.9,395,342.7,395,357.3z M461,226.6v174.2c0,24-21.2,43.5-47.2,43.5H98.3c-26.1,0-47.2-19.5-47.2-43.5V226.6
		c0-20,14.8-36.7,34.6-41.8c0-0.6-0.2-1.2-0.2-1.7c0-14.6,12.8-26.3,28.6-26.3c3.7,0,7.2,0.8,10.6,1.9l274.2-70l0,0
		c0-11.5,10.1-20.9,22.7-20.9c12.4,0,22.7,9.3,22.7,20.9c0,11.5-10.1,20.9-22.7,20.9c-8.2,0-15.1-4.2-19-10.2L140,172.1
		c1.7,3.4,2.7,7.1,2.7,11.1h271C439.8,182.9,461,202.4,461,226.6z M319,270.1h94.7V212H319L319,270.1L319,270.1z M98.3,212v58.1h205
		V212H98.3z M114.1,320.9c0-4-3.5-7.3-7.9-7.3c-4.4,0-7.9,3.3-7.9,7.3v72.6c0,4,3.5,7.3,7.9,7.3c4.4,0,7.9-3.3,7.9-7.3V320.9z
		 M145.5,320.9c0-4-3.5-7.3-7.9-7.3s-7.9,3.3-7.9,7.3v72.6c0,4,3.5,7.3,7.9,7.3c4.4,0,7.9-3.3,7.9-7.3V320.9z M177.1,320.9
		c0-4-3.5-7.3-7.9-7.3c-4.4,0-7.9,3.3-7.9,7.3v72.6c0,4,3.5,7.3,7.9,7.3c4.4,0,7.9-3.3,7.9-7.3V320.9L177.1,320.9z M208.8,320.9
		c0-4-3.5-7.3-7.9-7.3s-7.9,3.3-7.9,7.3v72.6c0,4,3.5,7.3,7.9,7.3s7.9-3.3,7.9-7.3V320.9z M240.2,320.9c0-4-3.5-7.3-7.9-7.3
		s-7.9,3.3-7.9,7.3v72.6c0,4,3.5,7.3,7.9,7.3s7.9-3.3,7.9-7.3V320.9z M271.8,320.9c0-4-3.5-7.3-7.9-7.3c-4.4,0-7.9,3.3-7.9,7.3v72.6
		c0,4,3.5,7.3,7.9,7.3c4.4,0,7.9-3.3,7.9-7.3V320.9L271.8,320.9z M416.2,357.3c0-25.4-22.4-46-49.9-46s-49.8,20.6-49.8,46
		c0,25.4,22.4,46,49.9,46C394,403.3,416.2,382.7,416.2,357.3z"/>
</g>
</svg>
