<?xml version="1.0" encoding="utf-8"?>
<!-- Generator: Adobe Illustrator 23.0.6, SVG Export Plug-In . SVG Version: 6.00 Build 0)  -->
<svg version="1.1" id="Layer_1" xmlns="http://www.w3.org/2000/svg" xmlns:xlink="http://www.w3.org/1999/xlink" x="0px" y="0px"
	 viewBox="0 0 512 512" style="enable-background:new 0 0 512 512;" xml:space="preserve">
<style type="text/css">
	.st0{fill:#4D4D4D;}
</style>
<g>
	<g>
		<path class="st0" d="M330.4,173.6c-4-4-10.5-4-14.5,0.1l-61.4,61.9c-2,2-2.9,4.6-2.9,7.3s1,5.2,3,7.2c4,4,10.5,4,14.5-0.1
			l61.4-61.9C334.5,184.1,334.5,177.6,330.4,173.6z"/>
		<path class="st0" d="M292.7,252.8c0,2.7,1,5.2,3,7.2c4,4,10.5,4,14.5-0.1l20.5-20.6c4-4,4-10.5-0.1-14.5c-4-4-10.5-4-14.5,0.1
			l-20.5,20.6C293.7,247.6,292.7,250.2,292.7,252.8z"/>
		<path class="st0" d="M492.2,153.3h-20.5c-5.4,0-9.8,4.2-10.2,9.5c0,0.5-3.5,44-28.3,51l-22-65.4c-15.4-46.2-58.4-77.2-107.2-77.2
			H188.2c-73.5,0-138.5,44-165.7,112.1C14,204.5,9.7,226.8,9.7,249.6c0,48.7,39.7,88.5,88.5,88.5h250.3c64.6,0,113.6,96,114,97
			c1.7,3.5,5.2,5.6,9.1,5.6h20.5c5.6,0,10.2-4.6,10.2-10.2v-267C502.4,157.9,497.8,153.3,492.2,153.3z M98.1,317.5v0.1
			c-37.5,0-68-30.5-68-68c0-20.1,3.8-39.9,11.3-58.7C65.6,130.6,123,91.7,188,91.7h115.9c39.9,0,75.1,25.4,87.7,63.2l25.2,75.6
			c2.3,7,3.4,14,3.4,20.9c0,36.5-29.7,66.1-66.1,66.1H98.1z"/>
	</g>
	<path class="st0" d="M256.5,356.8h-26.4c-0.9,21.4,6.7,43,23,59.3c27.9,27.9,71.5,30.5,102.5,7.9c6.1,6,14.8,14.5,14.8,14.5
		c5.3,5.2,10.4,0.7,10.2-4v-51c0-2-1.6-3.6-3.6-3.6h-7.2c-2,0-3.6,0-3.6,0s-1.6,0-3.6,0h-37.1c-3.2-0.1-9.4,3.7-3.9,10.4
		c0,0,7.9,8,14.8,14.8c-20.3,12.4-47.2,9.9-64.8-7.7C260.6,386.3,255.5,371.4,256.5,356.8L256.5,356.8z"/>
	<path class="st0" d="M398.4,229.3L373,153.8c-9.8-29.4-37.2-49.1-68.2-49.1H188.9c-56.5,0-106.6,34-127.6,86.3
		c-6.6,16.2-9.8,33.4-9.8,51c0,26.2,21.2,47.4,47.4,47.4H355c25.1,0,45.7-20.4,45.7-45.7C400.7,238.9,399.9,234,398.4,229.3z
		 M347.8,267.8H204.2L204,268l-97.6,1.2c-11.2,0.1-21.5-6.1-26.6-16.1c-7.5-14.6-9.3-37.6,8.9-68.2c33.9-57.2,85.6-60.8,85.6-60.8
		h126.4c20.9,1.2,38.8,15,45.6,34.9l25.2,75.6c0.8,2.6,1.3,5.2,1.3,7.9C373,256.5,361.7,267.8,347.8,267.8z"/>
</g>
</svg>
