<?xml version="1.0" encoding="utf-8"?>
<!-- Generator: Adobe Illustrator 23.0.6, SVG Export Plug-In . SVG Version: 6.00 Build 0)  -->
<svg version="1.1" id="Layer_1" xmlns="http://www.w3.org/2000/svg" xmlns:xlink="http://www.w3.org/1999/xlink" x="0px" y="0px"
	 viewBox="0 0 512 512" style="enable-background:new 0 0 512 512;" xml:space="preserve">
<style type="text/css">
	.st0{opacity:0.63;fill:#4D4D4D;enable-background:new    ;}
	.st1{fill:#4D4D4D;}
	.st2{fill:#FFFFFF;}
</style>
<g>
	<path class="st0" d="M415.1,212.7L449,373.6c0,0,7.1,17.4-9.4,16.9s-389.2-1.4-389.2-1.4l0.9-176.9L415.1,212.7z"/>
	<g>
		<path class="st1" d="M265.5,361.1h-38.4c-15.9,0-28.8-12.9-28.8-28.8v-54.8c0-15.9,12.9-28.8,28.8-28.8h38.4
			c15.9,0,28.8,12.9,28.8,28.8v54.8C294.3,348.2,281.4,361.1,265.5,361.1z"/>
		<g>
			<path class="st2" d="M275.2,309.8c-0.7-0.7-1.6-1.1-2.5-1.1h-50.3c-1,0-1.8,0.4-2.5,1.1s-1.1,1.6-1.1,2.5c0,1,0.4,1.8,1.1,2.5
				l25.1,25.1c0.7,0.7,1.6,1.1,2.5,1.1c1,0,1.8-0.4,2.5-1.1l25.1-25.1c0.7-0.7,1.1-1.6,1.1-2.5C276.3,311.3,275.9,310.5,275.2,309.8
				z"/>
		</g>
		<g>
			<path class="st2" d="M220.2,299.8c0.7,0.7,1.5,1.1,2.5,1.1h50c1,0,1.8-0.4,2.5-1.1s1.1-1.5,1.1-2.5s-0.4-1.8-1.1-2.5l-25-25
				c-0.7-0.7-1.5-1.1-2.5-1.1s-1.8,0.4-2.5,1.1l-25,25c-0.7,0.7-1.1,1.5-1.1,2.5C219.2,298.2,219.5,299.1,220.2,299.8z"/>
		</g>
	</g>
	<path class="st1" d="M484.7,373.9L436.8,176c-7.5-30.1-20.4-55.2-37.9-73.4c-16.3-16.9-35.2-25.7-54.7-25.7h-306
		c-6.4,0-11.5,7.9-11.5,17.8v322.4c0,4.7,1.2,9.5,3.4,12.7c2.3,3.5,5.1,5.3,8.2,5.3h427.3c5,0,9.3-4.9,10.9-12.1l8.2-36.9
		C485.6,381.9,485.6,377.9,484.7,373.9z M451,391.6c-5.3,2.5-45.1,1.3-45.1,1.3H48.7V169.7l-0.4-57.2l296.1,0.4
		c0,0,31.4-4,55.4,37.4c4.2,7.1,7.8,15,10.8,23.5l42.3,203.1C452.8,376.8,456.3,389.2,451,391.6z"/>
</g>
</svg>
