<?xml version="1.0" encoding="utf-8"?>
<!-- Generator: Adobe Illustrator 23.0.6, SVG Export Plug-In . SVG Version: 6.00 Build 0)  -->
<svg version="1.1" id="Layer_1" xmlns="http://www.w3.org/2000/svg" xmlns:xlink="http://www.w3.org/1999/xlink" x="0px" y="0px"
	 viewBox="0 0 400 400" style="enable-background:new 0 0 400 400;" xml:space="preserve">
<style type="text/css">
	.st0{fill:#4D4D4D;}
</style>
<g>
	<path class="st0" d="M351.3,104.6l26.2-78.4c0,0,0.6-9.7-8.8-12.1s-35.7-2.4-46.3,16.2s-19.8,48.9-19.8,48.9s-1.8,11.8,8.3,13.6
		S336,89.6,351.3,104.6z"/>
	<path class="st0" d="M234,281.8c3.5,4.7,30.7,12.7,46,71.6l64-224.3c0,0,11.2-23.6-13.9-28s-49.2,4.4-62.2,38.9
		s-34.5,118.8-34.5,118.8S230.4,277.1,234,281.8z M304.3,139.6l5.1-17c1.7-5.7,7.7-8.9,13.4-7.2l0,0c5.7,1.7,8.9,7.7,7.2,13.4
		l-5.1,17c-1.7,5.7-7.7,8.9-13.4,7.2C305.9,151.3,302.7,145.3,304.3,139.6z"/>
	<circle class="st0" cx="316.1" cy="135.1" r="6"/>
	<path class="st0" d="M70.6,364l161.3-0.9c0,0-0.9-11.2-12.7-12.7S80.9,351,80.9,351S68.9,352.8,70.6,364z"/>
	<polygon class="st0" points="260.2,370.2 42.9,370.5 42.6,387 260.5,387 	"/>
	<path class="st0" d="M211.6,285.6c-51.3-13.5-140-30.1-169.2-4.7s-18,63.1-16.5,70.2c0,0,2.9,12.4,22.1,13.3h16.8
		c0,0-0.9-20.3,15.9-20s140,0,140,0s17.1,0.3,17.1,19.5l29.8-0.5C267.6,363.4,262.9,299.1,211.6,285.6z M206,336h-10.2v-11.5H206
		V336z M206,316.3h-10.2v-11.5H206V316.3z M221.7,336h-10.2v-11.5h10.2V336z M221.7,316.3h-10.2v-11.5h10.2V316.3z M249,359
		c-6.9,0-12.5-5.6-12.5-12.5S242.1,334,249,334s12.5,5.6,12.5,12.5S255.9,359,249,359z"/>
</g>
</svg>
