<?xml version="1.0" encoding="utf-8"?>
<!-- Generator: Adobe Illustrator 23.0.6, SVG Export Plug-In . SVG Version: 6.00 Build 0)  -->
<svg version="1.1" id="Layer_1" xmlns="http://www.w3.org/2000/svg" xmlns:xlink="http://www.w3.org/1999/xlink" x="0px" y="0px"
	 viewBox="0 0 400 400" style="enable-background:new 0 0 400 400;" xml:space="preserve">
<style type="text/css">
	.st0{fill:#4D4D4D;}
</style>
<g>
	<path class="st0" d="M244,230h-5.8v14h5.8c5.9,0,9.1-2.5,9.1-7.4C253,231.7,249.9,230,244,230z"/>
	<path class="st0" d="M195.8,229.6h-0.3c-1.2,5.3-2.5,11.1-3.9,16l-1.3,4.6h10.6l-1.1-4.6C198.4,240.6,197,234.8,195.8,229.6z"/>
	<rect x="145.5" y="123" class="st0" width="109.1" height="29.8"/>
	<path class="st0" d="M200,23.1c-97.5,0-176.9,79.4-176.9,176.9S102.5,376.9,200,376.9S376.9,297.5,376.9,200S297.5,23.1,200,23.1z
		 M134.8,112.4h130.3v51H134.8V112.4z M107.8,271.7c-6.4,0-13.3-2.4-18.3-7.1l6.4-7.7c3.6,3.1,8.2,5.2,12.3,5.2
		c4.7,0,6.9-1.8,6.9-4.8c0-3.1-2.8-4.1-7.2-5.9l-6.5-2.7c-5.1-2.1-10-6.3-10-13.6c0-8.2,7.3-14.8,17.7-14.8c5.7,0,11.7,2.3,16,6.6
		l-5.6,6.9c-3.3-2.5-6.3-4-10.3-4c-3.9,0-6.3,1.7-6.3,4.5c0,3.1,3.3,4.1,7.5,5.9l6.4,2.6c6,2.4,9.8,6.5,9.8,13.5
		C126.7,264.5,119.8,271.7,107.8,271.7z M171.8,230.6h-13.6v40.2h-11.3v-40.2h-0.1h-13.6v-9.5h38.6L171.8,230.6L171.8,230.6z
		 M206.2,270.8l-3.1-11.8H188l-3.1,11.8h-11.3l15.5-49.7h13.5l15.6,49.7H206.2z M253.8,270.8l-9.5-17.9h-6.2v17.9H227v-49.7h17.9
		c10.5,0,19.1,3.7,19.1,15.5c0,7.3-3.5,12-8.8,14.3l11.3,19.9H253.8z M310.5,230.6h-13.6v40.2h-11.3v-40.2h-0.1h-13.6v-9.5h38.6
		V230.6z"/>
</g>
</svg>
