<?xml version="1.0" encoding="utf-8"?>
<!-- Generator: Adobe Illustrator 23.0.6, SVG Export Plug-In . SVG Version: 6.00 Build 0)  -->
<svg version="1.1" id="Layer_1" xmlns="http://www.w3.org/2000/svg" xmlns:xlink="http://www.w3.org/1999/xlink" x="0px" y="0px"
	 viewBox="0 0 400 400" style="enable-background:new 0 0 400 400;" xml:space="preserve">
<style type="text/css">
	.st0{fill:#4D4D4D;}
</style>
<g>
	<path class="st0" d="M200,200"/>
</g>
<g>
	<path class="st0" d="M384,269.7c-0.7-2.4-1.5-4.7-2.6-6.9L280.7,60.5c-8.1-17.9-26.8-19.3-36.4-18.7c-3,0.2-5.9,0.7-8.8,1.6
		c-58.6,17.9-84.3,38.7-99.4,53.3c-6.5,6.4-8.8,13.7-9.3,20.1c-0.5,6.7,1,13.3,4,19.3c14.7,29,100.5,199,108.1,212.5
		c8.3,14.8,31,10.2,31,10.2c76.9-17.6,97.7-48.6,109.7-59.3C388.6,291.8,386,277.1,384,269.7z M171.6,170.6c0.9-1.6,2.1-2.9,3.5-4.1
		c24.8-20.4,92.5-50.4,105.2-53.1c8.1-1.7,13.8,3.5,17,7.7c1.9,2.6,2.9,5.7,2.9,8.9l-0.2,12.5c-0.1,5.4-3.2,10.3-8.1,12.7
		l-94.1,45.3c-4.7,2.3-10.3,1.8-14.6-1.3l-9.7-6.9c-1.2-0.9-2.3-1.9-3.1-3.1C165.8,182.6,169.3,174.6,171.6,170.6z M222.9,306.2
		l-54.7-106.3l18.2,12.3l43.6,81.5L222.9,306.2z M363.6,252.2c0,0-0.9,13.9-38.4,37.7c-37.7,23.9-71.4,29.5-83.9,28.1
		c-12.2-1.4-8.7-6.6-8.7-6.6c74.1-7.9,126.6-63.9,126.6-63.9C364.8,245.3,363.6,252.2,363.6,252.2z M350.1,236.9l-40.3-83.1l0.7-22
		l53.8,106.8L350.1,236.9z"/>
	<rect x="14" y="30" class="st0" width="34.7" height="339.9"/>
	<g>
		<path class="st0" d="M115.4,313.6c3.3,3.7,8.9,4,12.6,0.7c3.7-3.3,4-8.9,0.7-12.6c-22.7-25.4-20.5-64.5,5-87.2
			c1.9-1.7,2.8-3.9,3-6.2c0.1-2.3-0.6-4.6-2.3-6.5c-3.3-3.7-8.9-4-12.6-0.7C89.1,230.3,86.2,280.9,115.4,313.6L115.4,313.6z"/>
		<path class="st0" d="M140.9,290.9c3.3,3.7,8.9,4,12.6,0.7c3.7-3.3,4-8.9,0.7-12.6c-10.2-11.4-9.2-28.9,2.2-39
			c1.9-1.7,2.8-3.9,3-6.2c0.1-2.3-0.6-4.6-2.3-6.5c-3.3-3.7-8.9-4-12.6-0.7C125.9,243.2,124.2,272.2,140.9,290.9L140.9,290.9z"/>
		<g>
			<path class="st0" d="M98.8,175.2c-47,42-51.2,114.4-9.2,161.5c3.3,3.7,8.9,4,12.6,0.7s4-8.9,0.7-12.6
				C67.5,285.1,71,224,110.7,188.6c1.9-1.7,2.8-3.9,3-6.2s-0.6-4.6-2.3-6.5C108.1,172.2,102.5,171.9,98.8,175.2L98.8,175.2z"/>
		</g>
	</g>
</g>
</svg>
