<?xml version="1.0" encoding="utf-8"?>
<!-- Generator: Adobe Illustrator 23.0.6, SVG Export Plug-In . SVG Version: 6.00 Build 0)  -->
<svg version="1.1" id="Layer_1" xmlns="http://www.w3.org/2000/svg" xmlns:xlink="http://www.w3.org/1999/xlink" x="0px" y="0px"
	 viewBox="0 0 400 400" style="enable-background:new 0 0 400 400;" xml:space="preserve">
<style type="text/css">
	.st0{fill:#4D4D4D;}
</style>
<g>
	<path class="st0" d="M101.3,125.6v115.6h38c0.7-2.1,1.5-4.2,2.4-6.2c4.2-10,8.5-24.8,6.5-41.7l-9,0.3l14.9-31.7l17.3,32l-10.2-0.1
		c0,0,5.1,24.8-5.4,46.8c-0.1,0.2-0.2,0.5-0.3,0.7h26.9c0.7-2.1,1.5-4.2,2.4-6.2c4.2-10,8.5-24.8,6.5-41.7l-9,0.3l14.9-31.7l17.3,32
		l-10.2-0.1c0,0,5.1,24.8-5.4,46.8c-0.1,0.2-0.2,0.5-0.3,0.7h26.9c0.7-2.1,1.5-4.2,2.4-6.2c4.2-10,8.5-24.8,6.5-41.7l-9,0.3
		l14.9-31.7l17.3,32l-10.2-0.1c0,0,5.1,24.8-5.4,46.8c-0.1,0.2-0.2,0.5-0.3,0.7h52.6V125.6H101.3z"/>
	<path class="st0" d="M29,29V371H371V29H29z M323.2,243.4c0,6.1-4.9,11.1-11.1,11.1h-70.8c-3.6,18-0.6,36.6,9.1,55.4h-17.3
		c0,0-4.9-7.3-7.9-22.4c-2.1-11-2-22.1-0.2-33h-30.3c-3.6,18-0.6,36.6,9.1,55.4h-17.3c0,0-4.9-7.3-7.9-22.4c-2.1-11-2-22.1-0.2-33
		h-30.3c-3.6,18-0.6,36.6,9.1,55.4h-17.3c0,0-4.9-7.3-7.9-22.4c-2.1-11-2-22.1-0.2-33H88.8c-6.1,0-11.1-4.9-11.1-11.1V103.5
		c0-6.1,4.9-11.1,11.1-11.1h223.5c6.1,0,11.1,4.9,11.1,11.1v139.9H323.2z"/>
</g>
</svg>
