<?xml version="1.0" encoding="utf-8"?>
<!-- Generator: Adobe Illustrator 25.0.0, SVG Export Plug-In . SVG Version: 6.00 Build 0)  -->
<svg version="1.1" id="Layer_1" xmlns="http://www.w3.org/2000/svg" xmlns:xlink="http://www.w3.org/1999/xlink" x="0px" y="0px"
	 viewBox="0 0 512 512" style="enable-background:new 0 0 512 512;" xml:space="preserve">
<style type="text/css">
	.st0{fill:#4D4D4D;}
</style>
<path class="st0" d="M505.7,217.8c-0.7-27.1-27.1-25.7-43.6-26.4c-16.5-0.7-23.6,7.9-23.6,7.9l-30-95C402.8,85.8,387.8,90,387.8,90
	l-120.1-0.6v-0.1H256l-11.7-0.1v0.1l-120.1,0.6c0,0-15-4.3-20.7,14.3l-30,95c0,0-7.1-8.6-23.6-7.9S7,190.6,6.3,217.8
	c-0.7,27.2,41.4,20,41.4,20l3.6,2.1l-17.9,21.4V415c0,0,2.1,6.4,11.4,6.4c9.3,0,72.2,1.4,72.2,1.4s9.3-2.9,9.3-12.9v-19.3h118h23.5
	h118v19.3c0,10,9.3,12.9,9.3,12.9s62.9-1.4,72.2-1.4s11.4-6.4,11.4-6.4V261.4L460.8,240l3.6-2.1
	C464.3,237.8,506.4,244.9,505.7,217.8z M123.2,114.9c0,0,3.2-5.4,16.1-5.7c12.9-0.4,235,0,235,0s9.3-1.8,13.9,9.6
	c4.6,11.4,31.8,94.3,31.8,94.3s-329,0-329,1.1L123.2,114.9z M108.6,315.5c-16.7,0-30.3-13.6-30.3-30.3c0-16.7,13.6-30.3,30.3-30.3
	s30.3,13.6,30.3,30.3S125.3,315.5,108.6,315.5z M341.7,323.8c-0.3,1.4-0.9,2.7-1.7,3.9l-5.5,8.7c-2.5,4-6.6,5-11.4,5l-138,0.9
	c-5.4,0-10.2-3.2-12.4-8.1l-4.6-10.2c-2.4-6.5,0.3-10,3.2-11.9c2.1-1.4,4.6-2,7.1-2h157.4C344,310.5,342.8,319.4,341.7,323.8z
	 M403.8,315.5c-16.7,0-30.3-13.6-30.3-30.3c0-16.7,13.6-30.3,30.3-30.3c16.7,0,30.3,13.6,30.3,30.3S420.5,315.5,403.8,315.5z"/>
</svg>
