<?xml version="1.0" encoding="utf-8"?>
<!-- Generator: Adobe Illustrator 26.0.3, SVG Export Plug-In . SVG Version: 6.00 Build 0)  -->
<svg version="1.1" id="Layer_1" xmlns="http://www.w3.org/2000/svg" xmlns:xlink="http://www.w3.org/1999/xlink" x="0px" y="0px"
	 viewBox="0 0 512 512" style="enable-background:new 0 0 512 512;" xml:space="preserve">
<style type="text/css">
	.st0{fill:#4D4D4D;}
</style>
<g>
	<path class="st0" d="M268.6,507.9c-42.3,0-84.5-0.3-126.8,0.1c-15.7,0.1-28.5-5.5-38.6-16.9c-15.4-17.6-22.2-38.6-19.8-61.8
		c2.5-23.7,22.2-41.9,48.7-43.3c16.8-1,33.8,1.8,50.7,2.9c28.9,1.8,58.1,6.1,86.8,4.2c27.3-1.9,54.3-10,81-16.5
		c12.8-3.1,25.2-8.9,37.2-14.4c15.8-7.5,32.3-10.4,49.6-9.1c12.5,1,22.2,7.4,29.6,17.3c21.4,29.2,18.7,82.5-6.5,108.2
		c-18.3,18.7-40.8,29.3-67.3,29.3C351.7,508,310.2,507.9,268.6,507.9z"/>
	<path class="st0" d="M202.7,362.5c-11.2-1.4-22.4-3.1-33.5-3.8c-17.2-1.1-34.5-2.7-51.7-1.8c-20.3,1.1-37.8,9.4-48.5,30.7
		c-3.7-17.2-7.6-32.2-10.1-47.4C50.5,285.8,42,231.4,34.7,176.9c-4.4-32.2-6.4-64.8-0.3-96.9c2.6-13.2,6.8-26.4,12.4-38.6
		c10-21.1,27.8-33,50.7-37.1C106,2.8,112,7.2,117,13.2c10.9,12.8,14.2,28.2,14.7,44.3c0.8,28.4-7.6,54.7-19.5,79.9
		c-2.3,5-1.6,7.8,1.9,11.7c36.4,39.7,67.1,82.9,81,136c6,22.9,9.7,46.2,8.9,69.9c0,1.8-0.1,3.7-0.4,5.5
		C203.6,360.9,203.2,361.5,202.7,362.5z"/>
</g>
</svg>
