<svg xmlns="http://www.w3.org/2000/svg" width="14.034" height="18.712" viewBox="0 0 14.034 18.712"><path d="M14293.061,445.906c.523-.364,5.974,0,5.974,0l1.486,4.2s-.756,3.01-1.2,3.346-2.925-.381-3.986-.174-2.271.352-2.271.352l-1.436-3.142S14292.537,446.27,14293.061,445.906Z" transform="translate(-14289.075 -438.815)" fill="#ddd"/><path d="M14293.6,441.611l5.428-.091-.105-2.576-1.061-.435h-3.554l-.818,1.075Z" transform="translate(-14289.231 -438.209)" fill="#ddd"/><g transform="translate(0 0)"><path d="M-396.023-21.711a6.151,6.151,0,0,0,.277-1.811,6.253,6.253,0,0,0-.321-1.98l-.879-2.636a2.7,2.7,0,0,0-1.9-1.778c-.323-.081-.734-.167-1.187-.24V-31.1h.39a.78.78,0,0,0,.78-.78v-1.559A1.561,1.561,0,0,0-400.424-35h-3.119a1.561,1.561,0,0,0-1.559,1.559v1.559a.78.78,0,0,0,.78.78h.39v.946c-.453.073-.864.159-1.187.24a2.7,2.7,0,0,0-1.9,1.778L-407.9-25.5a6.254,6.254,0,0,0-.321,1.98,6.152,6.152,0,0,0,.277,1.811A1.354,1.354,0,0,0-409-20.393a10.31,10.31,0,0,0,.394,2.825l.171.429a1.346,1.346,0,0,0,1.256.851h10.447a1.347,1.347,0,0,0,1.211-.748,9.119,9.119,0,0,0,.554-3.128v-.228A1.354,1.354,0,0,0-396.023-21.711Zm-8.3-10.171h0v-1.559a.78.78,0,0,1,.78-.78h3.119a.78.78,0,0,1,.78.78v1.559Zm3.508.78v.846a11.52,11.52,0,0,0-1.169-.066,11.509,11.509,0,0,0-1.169.066V-31.1Zm-6.345,5.847.879-2.636a1.919,1.919,0,0,1,1.351-1.268,12.381,12.381,0,0,1,2.946-.383,12.381,12.381,0,0,1,2.946.383,1.919,1.919,0,0,1,1.351,1.268l.879,2.636a5.459,5.459,0,0,1,.282,1.733,5.429,5.429,0,0,1-.359,1.912,1.338,1.338,0,0,0-.646.612l-.359.717c-.113-.038-.261-.084-.423-.132l.512-1.007a4.728,4.728,0,0,0,.5-2.1,4.7,4.7,0,0,0-.241-1.487l-.879-2.635a1.158,1.158,0,0,0-.8-.759,11.6,11.6,0,0,0-2.755-.359,11.617,11.617,0,0,0-2.756.359,1.159,1.159,0,0,0-.8.758l-.879,2.637a4.7,4.7,0,0,0-.241,1.487,4.73,4.73,0,0,0,.5,2.106l.509,1c-.162.048-.31.094-.423.132l-.359-.717a1.338,1.338,0,0,0-.646-.612,5.428,5.428,0,0,1-.359-1.912A5.458,5.458,0,0,1-407.159-25.255Zm8.662,3.484-.586,1.154a12.883,12.883,0,0,0-2.9-.349,12.881,12.881,0,0,0-2.9.349l-.584-1.15a3.952,3.952,0,0,1-.414-1.755,3.907,3.907,0,0,1,.2-1.24l.879-2.637a.376.376,0,0,1,.252-.248,10.836,10.836,0,0,1,2.566-.336,10.818,10.818,0,0,1,2.565.336.377.377,0,0,1,.253.249l.879,2.636a3.909,3.909,0,0,1,.2,1.24A3.951,3.951,0,0,1-398.5-21.771Zm2.751,1.606a8.367,8.367,0,0,1-.472,2.779.571.571,0,0,1-.513.318h-10.447a.571.571,0,0,1-.533-.361l-.171-.429a9.6,9.6,0,0,1-.338-2.535.574.574,0,0,1,.574-.574.572.572,0,0,1,.513.317l.513,1.027a.39.39,0,0,0,.493.188,12.537,12.537,0,0,1,4.143-.752,12.587,12.587,0,0,1,4.143.752.392.392,0,0,0,.493-.188l.513-1.026a.572.572,0,0,1,.513-.318.574.574,0,0,1,.574.574Z" transform="translate(409 35)" fill="#4d4d4f"/></g><g transform="translate(2.729 15.983)"><path d="M-325.764,402.6a.39.39,0,0,0-.491-.248,13.881,13.881,0,0,1-3.776.37,13.882,13.882,0,0,1-3.776-.37.39.39,0,0,0-.491.248.388.388,0,0,0,.246.491,14.11,14.11,0,0,0,4.022.41,14.108,14.108,0,0,0,4.022-.41A.388.388,0,0,0-325.764,402.6Z" transform="translate(334.319 -402.335)" fill="#4d4d4f"/></g></svg>