<?xml version="1.0" encoding="utf-8"?>
<!-- Generator: Adobe Illustrator 23.0.6, SVG Export Plug-In . SVG Version: 6.00 Build 0)  -->
<svg version="1.1" id="Layer_1" xmlns="http://www.w3.org/2000/svg" xmlns:xlink="http://www.w3.org/1999/xlink" x="0px" y="0px"
	 viewBox="0 0 400 400" style="enable-background:new 0 0 400 400;" xml:space="preserve">
<style type="text/css">
	.st0{fill:#4D4D4D;}
</style>
<g>
	<path class="st0" d="M388.4,50.3c-8.6-17.2-25.9-27.8-45-27.8H187.1c-29.9,0-58.5,12.9-78.4,35.2l-75.8,85.2
		c-17,19.3-26.5,44-26.5,70.8l13.5,104.1c2,15,8.8,29.1,19.5,39.6c13,13,30.2,20.1,48.4,20.1h273.6c17.8,0,32.3-14.5,32.3-32.3V72.7
		C393.6,65,391.9,57.2,388.4,50.3z M55.5,200c1.5-8.6,5.6-15.9,13.6-24.9l75.8-85.2c10.7-12,26.1-19,42.2-19h156.4
		c0.7,0,1.3,0.4,2,2L345.2,200H55.5z M181.7,266.6c-2.2,0-4-1.8-4-4v-3.5h-0.1c0-2.2,2-4,4-3.9h48.7l-15.3-15.3
		c-0.7-0.7-1.1-1.7-1.1-2.8s0.4-2.1,1.1-2.8l2.3-2.3c0.7-0.7,1.7-1.1,2.8-1.1s2.1,0.4,2.8,1.1l26.2,26.2c0.7,0.7,1.1,1.7,1.1,2.8
		c0,1.1-0.4,2.1-1.1,2.8L222.9,290c-0.7,0.7-1.7,1.1-2.8,1.1s-2.1-0.4-2.8-1.1l-2.3-2.3c-0.7-0.7-1.1-1.7-1.1-2.8s0.4-2,1.1-2.8
		l15.5-15.5L181.7,266.6L181.7,266.6z M304.9,251h48.4c4.5,0,8.1,3.7,8.1,8.1c0,4.5-3.7,8.1-8.1,8.1h-48.4c-4.5,0-8.1-3.7-8.1-8.1
		C296.9,254.5,300.4,251,304.9,251z M353.4,315.6H63c-4.5,0-8.1-3.6-8.1-8.1s3.7-8.1,8.1-8.1h290.4c4.5,0,8.2,3.6,8.2,8.1
		S357.9,315.6,353.4,315.6z M377.6,207.3l-16.3,0.1V72.7c0-2.8-0.6-5.5-2-8.1c-2.9-6.1-9.1-9.9-15.9-9.9H187.1
		c-20.7,0-40.5,8.8-54.3,24.4l-75.8,85.2C47.3,175,38.5,187.7,38.5,208c0,0.6,0.1,1.1,0.2,1.6l-16,0.1c0.7-20.6,8.6-40.5,22.3-56
		l75.8-85.2c16.8-18.9,41-29.8,66.3-29.8h156.4c13,0,24.8,7.2,30.5,18.9c2.3,4.7,3.6,10.1,3.6,15.3V207.3z"/>
</g>
</svg>
