<?xml version="1.0" encoding="utf-8"?>
<!-- Generator: Adobe Illustrator 23.0.6, SVG Export Plug-In . SVG Version: 6.00 Build 0)  -->
<svg version="1.1" id="Layer_1" xmlns="http://www.w3.org/2000/svg" xmlns:xlink="http://www.w3.org/1999/xlink" x="0px" y="0px"
	 viewBox="0 0 512 512" style="enable-background:new 0 0 512 512;" xml:space="preserve">
<style type="text/css">
	.st0{fill:#4D4D4F;}
</style>
<g>
	<path class="st0" d="M404.8,411.3c-27.3-71.7-102.2-60.7-102.2-60.7l-135.4,30.5h-1.3c-22.4-14.7-63.6-5.2-64.9,28.3
		c-1.3,33.6,30.3,40.3,30.3,40.3c9.6,25.9,33,27.2,33,27.2h204.8C420,470.2,404.8,411.3,404.8,411.3z M142.2,426
		c-7.7,0-14-5.8-14-13s6.3-13,14-13s14,5.8,14,13C156.2,420.1,149.9,426,142.2,426z"/>
	<path class="st0" d="M97.8,363.6c0,0,28.7-26.3,71.4-9.7l39.6-9.7l-37.2-123.9c0,0-10.5-30.5-41.2-40.3c0,0,22.1-22.3,14.8-53.1
		c-7.3-30.9-14.8-88.3-81.1-89.4c0,0-54.4,2.1-45.4,51.8L43.4,176c0,0,4.9,15.3,18.1,22.9c0,0-8.6,11.6-0.6,39.3L97.8,363.6z"/>
	<g>
		<polygon class="st0" points="337.8,221.2 337.8,174.8 320.9,221.2 		"/>
		<path class="st0" d="M354.3,35.1c-77.3,0-140,64.1-140,143.1s62.7,143.1,140,143.1s140.1-64,140.1-143.1S431.7,35.1,354.3,35.1z
			 M288.6,156.9c0,0-1.3,7.8-10,8.6c-8.7,0.6-11.3-7.8-11.3-7.8s-1.5-56.3,64.2-60.9c0,0,9.7,1.6,10.2,9c0.5,7.5-5.7,10.4-9.7,10.9
			C332.1,116.5,292.8,112.9,288.6,156.9z M372.1,239.8h-10v24.3h-24.2v-24.3H302V222l30-72.4h30.1v71.6h10V239.8z M413.5,264.2
			l-9.2-20.9l-7.4,20.9h-20.5l17.1-45.4l-16-36.3h25.6l7.9,17.8l6.9-17.8h18.5L421,222.8l18.4,41.4H413.5z"/>
	</g>
</g>
</svg>
