<?xml version="1.0" encoding="utf-8"?>
<!-- Generator: Adobe Illustrator 23.0.6, SVG Export Plug-In . SVG Version: 6.00 Build 0)  -->
<svg version="1.1" id="Layer_1" xmlns="http://www.w3.org/2000/svg" xmlns:xlink="http://www.w3.org/1999/xlink" x="0px" y="0px"
	 viewBox="0 0 400 400" style="enable-background:new 0 0 400 400;" xml:space="preserve">
<style type="text/css">
	.st0{fill:#4D4D4D;}
</style>
<path class="st0" d="M359.1,65.8c0,0-291.9,0.2-320,0.2S13.8,91.3,13.8,91.3s0.4,221.2,0,231.7s9.7,11.3,9.7,11.3s340.9,0,351.4,0
	s11.1-10.5,11.1-10.5V92.7C389.1,63,359.1,65.8,359.1,65.8z M236.6,92c0-3.5,2.8-6.3,6.3-6.3h40.8c3.5,0,6.3,2.8,6.3,6.3v11.6
	c0,3.5-2.8,6.3-6.3,6.3h-40.8c-3.5,0-6.3-2.8-6.3-6.3V92z M110.1,92c0-3.5,2.8-6.3,6.3-6.3h40.8c3.5,0,6.3,2.8,6.3,6.3v11.6
	c0,3.5-2.8,6.3-6.3,6.3h-40.8c-3.5,0-6.3-2.8-6.3-6.3C110.1,103.6,110.1,92,110.1,92z M86.3,130.5h226.6c0,0,9.3,1.5,5.9,11.2
	l-5.3,9.8h-227l-6.6-11.1C79.9,140.5,78.1,132.5,86.3,130.5z M53.3,318l-23.2-0.3l-0.3-100.8l34,28L53.3,318z M68.7,317.4l8.6-57.7
	c3,1.6,11.1,14,18.6,22.9s7.5,34.8,7.5,34.8L68.7,317.4L68.7,317.4z M279.8,308.8l-2.2,16.4H122.3l-2.4-17c0,0,0.5-5.7,7.8-6.2
	c7.3-0.5,145.3,0,145.3,0S280.6,302.6,279.8,308.8z M261.6,238.3c0,0-2,3.2-5.7,3.2c-3.6,0-113.5,0-113.5,0s-4.2-0.8-6.1-3.2
	c-1.9-2.4-8.1-14.2-8.1-14.2h142.3L261.6,238.3z M271.7,272.1c3.2,0,5.8,2.6,5.8,5.8v8.6c0,3.2-2.6,5.8-5.8,5.8h-40.6
	c-3.2,0-5.8-2.6-5.8-5.8v-8.6c0-3.2,2.6-5.8,5.8-5.8H271.7z M215,282.6c0,4.2-3.4,7.6-7.6,7.6h-15c-4.2,0-7.6-3.4-7.6-7.6
	s3.4-7.6,7.6-7.6h15C211.6,275,215,278.4,215,282.6z M128.4,272.1H169c3.2,0,5.8,2.6,5.8,5.8v8.6c0,3.2-2.6,5.8-5.8,5.8h-40.6
	c-3.2,0-5.8-2.6-5.8-5.8v-8.6C122.6,274.7,125.2,272.1,128.4,272.1z M119.1,208.4l-23.3-40.6l208.2-0.3l-24.1,40.7L119.1,208.4z
	 M297.6,317.2c0,0,0-25.9,7.5-34.8s15.6-21.3,18.6-22.9l8.6,57.7L297.6,317.2L297.6,317.2z M370.9,317.4l-23.2,0.3l-10.5-73.1l34-28
	L370.9,317.4z"/>
</svg>
