<?xml version="1.0" encoding="utf-8"?>
<!-- Generator: Adobe Illustrator 24.1.0, SVG Export Plug-In . SVG Version: 6.00 Build 0)  -->
<svg version="1.1" id="Layer_1" xmlns="http://www.w3.org/2000/svg" xmlns:xlink="http://www.w3.org/1999/xlink" x="0px" y="0px"
	 viewBox="0 0 512 512" style="enable-background:new 0 0 512 512;" xml:space="preserve">
<style type="text/css">
	.st0{fill:#4D4D4F;}
	.st1{fill:none;}
</style>
<path class="st0" d="M317.2,164.8V244H337v39.7h-59.4V125.2h39.6l-59.3-79.2l-59.4,79.2h39.7v158.5h-59.4v-41.5
	c13.8-6,23.8-21.8,23.8-37.8c0-23.6-19.9-43.5-43.5-43.5c-23.8,0-43.6,19.9-43.6,43.5c0,15.8,9.8,31.8,23.8,37.8v41.5
	c0,21.7,17.8,39.6,39.6,39.6h59.4v61.4c-14,8-23.8,21.8-23.8,37.6c0,23.8,19.9,43.6,43.6,43.6c23.6,0,43.5-19.9,43.5-43.6
	c0-17.8-9.9-31.6-23.8-37.6v-61.4h59.4c21.8,0,39.6-17.8,39.6-39.6V244h19.9v-79.2L317.2,164.8L317.2,164.8z"/>
<rect x="219.3" y="173.5" class="st1" width="197.4" height="277"/>
</svg>
