<svg id="Group_11340" data-name="Group 11340" xmlns="http://www.w3.org/2000/svg" width="25" height="25" viewBox="0 0 43.322 37.134"> 
                                        <path id="Path_15070" data-name="Path 15070" d="M41.439,23.712,36.3,22.845a1.5,1.5,0,0,1-1.129-.836l-2.816-5.632h2.135V13.283H28.3V8.642a1.552,1.552,0,0,0-1.547-1.547H19.02V5.547A1.552,1.552,0,0,0,17.472,4H11.283A1.552,1.552,0,0,0,9.736,5.547v7.736H5.094v3.094H6.92a4.649,4.649,0,0,0-.278,1.547v1.547H3.547A1.552,1.552,0,0,0,2,21.02V31.85A1.552,1.552,0,0,0,3.547,33.4H6.642a4.636,4.636,0,0,0,3.234,4.394,5.974,5.974,0,0,1-.139-1.3,6.189,6.189,0,1,1,12.378,0,6.328,6.328,0,0,1-.217,1.547h6.622a6.328,6.328,0,0,1-.217-1.547,6.189,6.189,0,1,1,12.378,0,6.328,6.328,0,0,1-.217,1.547h.217A4.655,4.655,0,0,0,45.322,33.4V28.276a4.607,4.607,0,0,0-3.884-4.564ZM6.642,30.3H5.094V22.567H6.642ZM19.02,22.567H9.736V17.925a1.552,1.552,0,0,1,1.547-1.547H19.02Zm0-9.283V10.189h6.189v3.094Zm3.094,9.283V16.378h5.818a1.534,1.534,0,0,1,1.393.851l2.661,5.338Z" transform="translate(-2 -4)" fill="#4d4d4d"/> <path id="Path_15071" data-name="Path 15071" d="M12.642,22a4.642,4.642,0,1,0,4.642,4.642A4.642,4.642,0,0,0,12.642,22Zm0,6.189a1.547,1.547,0,1,1,1.547-1.547A1.547,1.547,0,0,1,12.642,28.189ZM31.208,22a4.642,4.642,0,1,0,4.642,4.642A4.642,4.642,0,0,0,31.208,22Zm0,6.189a1.547,1.547,0,1,1,1.547-1.547A1.547,1.547,0,0,1,31.208,28.189Z" transform="translate(1.283 5.85)" fill="#4d4d4d"/> 
                                    </svg> 