<svg id="Group_2813" data-name="Group 2813" xmlns="http://www.w3.org/2000/svg" width="25" height="25" viewBox="0 0 45.513 34.59">
                                         <circle id="Ellipse_3" data-name="Ellipse 3" cx="6.596" cy="6.596" r="6.596" transform="translate(15.83 14.511)" fill="#4d4d4d"/> <path id="Path_15060" data-name="Path 15060" d="M43.872,10.462H37.9a1.821,1.821,0,0,1-1.728-1.246L35.6,7.489A3.641,3.641,0,0,0,32.144,5H17.367a3.641,3.641,0,0,0-3.454,2.49l-.575,1.726a1.821,1.821,0,0,1-1.728,1.245H5.641A3.641,3.641,0,0,0,2,14.1V35.949A3.641,3.641,0,0,0,5.641,39.59H43.872a3.641,3.641,0,0,0,3.641-3.641V14.1A3.641,3.641,0,0,0,43.872,10.462ZM24.757,35.949A10.013,10.013,0,1,1,34.769,25.936,10.026,10.026,0,0,1,24.757,35.949ZM35.68,17.744A1.821,1.821,0,1,1,37.5,15.923,1.821,1.821,0,0,1,35.68,17.744Z" transform="translate(-2 -5)" fill="#4d4d4d"/>
                                          <path id="Path_15061" data-name="Path 15061" d="M7.551,7.821H3.91A.91.91,0,1,1,3.91,6H7.551a.91.91,0,1,1,0,1.821Z" transform="translate(-1.179 -4.179)" fill="#4d4d4d"/> 
                                        </svg> 