<svg xmlns="http://www.w3.org/2000/svg" id="Layer_1" data-name="Layer 1" viewBox="0 0 350.16 299.99">
  <defs fill="#000000">
    <style>
      .cls-1 {
        fill: #e7aa07;
      }
    </style>
  </defs>
  <path class="cls-1" d="m169.86,98.99c2.12.27,4.26.45,6.36.82,15.51,2.78,28.18,10.12,36.99,23.45,3.54,5.35,5.7,11.27,6.56,17.65.04.33.11.66.18,1.04.84.15,1.7.25,2.53.46,4.54,1.13,6.98,4.25,6.98,8.89,0,8.24-.15,16.49.05,24.73.14,5.97-4.66,8.93-8.68,9.18-1.51.1-3.1.04-4.55-.32-1.76-.44-2.41-1.62-2.41-3.47,0-11.23-.06-22.45.02-33.68.08-11.54-4.31-21.13-12.57-28.98-7.89-7.5-17.41-11.64-28.16-12.96-11.87-1.45-23.13.56-33.46,6.7-10.13,6.02-17.2,14.52-19.94,26.18-.58,2.49-.88,5.1-.9,7.66-.09,11.59-.1,23.19,0,34.79.02,2.73-1.97,4.16-4.21,4.16-1.88,0-3.74.02-5.55-.64-3.79-1.38-5.88-4.31-5.88-8.32,0-8.34,0-16.69,0-25.03,0-4.91,2.99-8.36,7.87-9.08.53-.08,1.05-.14,1.44-.2.72-2.93,1.22-5.85,2.14-8.62,3.85-11.58,11.44-20.15,21.8-26.36,7.81-4.67,16.31-7.2,25.38-7.88.33-.02.65-.11.98-.17,2.35,0,4.69,0,7.04,0Z" fill="#000000"/>
  <path class="cls-1" d="m140.03,207.36c4.45.9,8.85,1.21,13.28,1.05.69-.03.93.36,1.25.78,2.2,2.89,5.92,4.02,9.35,2.87,3.38-1.14,5.69-4.28,5.74-7.82.06-3.88-2.63-7.39-6.34-8.29-3.86-.94-7.81.83-9.54,4.37-.37.75-.78,1-1.58,1-5.06-.01-10.04-.47-14.72-2.59-.06-.03-.12-.06-.18-.08-1.94-.63-3.09-1.9-3.48-3.96-.15-.75-.69-1.51-1.23-2.1-4.88-5.33-8.35-11.38-9.64-18.55-.63-3.52-.64-7.07.09-10.59.4-1.91,1.23-3.6,3.02-4.67.24-.14.35-.67.35-1.02-.01-4.23.25-8.44,1.05-12.6,1.61-8.43,4.91-15.99,11.47-21.8,5.11-4.53,11.19-7.03,17.85-8.14,7.89-1.31,15.77-1.19,23.5.98,12.07,3.38,19.77,11.31,23.54,23.16,1.87,5.86,2.52,11.91,2.46,18.04,0,.78.14,1.3.88,1.78,1.51.99,2.21,2.6,2.52,4.31.99,5.38.57,10.67-1.32,15.82-1.88,5.14-4.78,9.64-8.54,13.6-.37.39-.67.92-.83,1.44-2.34,7.71-6.25,14.43-12.53,19.6-13.54,11.13-32.71,9.38-44.34-4.01-.72-.83-1.39-1.7-2.08-2.56Z" fill="#000000"/>
  <path class="cls-1" d="m166.52,231.44c3.48,0,6.97,0,10.45,0,2.21,0,3.74,1.28,3.87,3.5.11,1.9.04,3.82-.15,5.71-.07.72-.59,1.51-1.12,2.06-2.08,2.14-4.21,4.22-6.39,6.26-.61.57-.79,1.11-.68,1.91.79,5.94,1.54,11.89,2.3,17.83.74,5.81,1.49,11.62,2.21,17.44.27,2.16-1.19,3.92-3.43,3.94-4.92.06-9.85.06-14.78,0-2.45-.03-3.47-1.35-3.16-3.93.6-4.95,1.24-9.9,1.87-14.85.89-6.97,1.8-13.95,2.66-20.93.05-.37-.2-.9-.49-1.18-2.15-2.11-4.33-4.2-6.53-6.26-.92-.86-1.35-1.87-1.33-3.12.03-1.44,0-2.88,0-4.32,0-2.64,1.44-4.06,4.12-4.06,3.52,0,7.04,0,10.55,0Z" fill="#000000"/>
  <g>
    <path class="cls-1" d="m261.54,267.17c-1.89-7.13-4.18-14.12-7.8-20.6-4.11-7.35-9.81-12.93-17.71-16.08-4.6-1.83-9.19-3.67-13.84-5.39-8.22-3.04-16.51-5.92-24.41-9.74-.1-.05-.23-.05-.4-.08,0,.27,0,.47,0,.67.03,8.18-.3,16.34-1.13,24.49-1.24,12.16-3.5,24.11-7.19,35.77-2.55,8.06-5.65,15.89-9.99,23.18-.12.2-.24.35-.39.47v.14c1.51,0,2.38,0,2.28-.02,4.43-.3,8.87-.53,13.3-.9,10.55-.88,21.09-1.79,31.63-2.77,6.97-.65,13.89-1.66,20.64-3.64,3.93-1.16,7.73-2.62,11.09-5.05,3.01-2.17,5.21-4.9,5.82-8.69.02-.13.09-.24.14-.36v-3.22c-.67-2.72-1.31-5.46-2.03-8.17Z" fill="#000000"/>
    <path class="cls-1" d="m154.01,299.74c-.12-.09-.24-.2-.3-.31-1.1-1.88-2.2-3.76-3.15-5.72-6.7-13.77-10.54-28.38-12.87-43.44-1.76-11.38-2.45-22.84-2.38-34.35,0-.22-.03-.43-.06-.73-.27.11-.45.19-.63.27-4.06,1.73-8.08,3.58-12.19,5.18-8.01,3.11-16.07,6.1-24.13,9.1-9.47,3.53-16.12,10.06-20.55,19.03-2.35,4.76-4.19,9.71-5.61,14.81-1.08,3.89-2.03,7.83-3.03,11.75v3.42c.24.79.44,1.6.73,2.37,1.14,3.1,3.36,5.28,6.05,7.04,4.27,2.79,9.06,4.28,13.96,5.46,6.59,1.59,13.31,2.41,20.05,3,12.01,1.05,24.03,2,36.05,2.97.56.05,3.78.1,8.06.16v-.02Z" fill="#000000"/>
  </g>
  <g>
    <path class="cls-1" d="m350.16,173.39c-.42,1.41-.66,2.9-1.29,4.21-2.63,5.45-7.05,8.28-13.11,8.33-7.79.07-15.58.02-23.36,0-.68,0-1.2.18-1.74.6-6.38,4.95-12.78,9.87-19.18,14.8-.25.19-.51.39-.78.55-1.28.73-2.72.06-2.99-1.4-.07-.4-.07-.81-.07-1.21,0-4.07,0-8.13,0-12.2,0-.34,0-.68,0-1.04-1.39-.08-2.7-.04-3.98-.24-5.78-.89-9.63-4.17-11.55-9.67-.2-.56-.43-.84-1.01-1-5.76-1.59-10.12-7.05-10.19-13.02-.09-8.07-.11-16.15,0-24.23.11-7.62,6.19-13.62,13.8-13.82,2.09-.05,4.18-.02,6.28-.02,14.67,0,29.35,0,44.02,0,6.64,0,11.85,3.75,14,10.01.1.29.42.63.71.72,5.84,1.85,9.31,5.76,10.31,11.83.02.11.09.21.14.31v26.5Zm-58.3,22.44c.39-.29.63-.44.85-.62,5.47-4.23,10.95-8.45,16.41-12.69.7-.55,1.43-.79,2.32-.79,7.99.02,15.99.02,23.98,0,.92,0,1.87-.06,2.76-.27,4.79-1.12,7.84-5.13,7.86-10.37.02-7.47.03-14.93,0-22.4-.03-5.95-4.28-10.22-10.23-10.23-16.65-.03-33.31-.03-49.96,0-5.92,0-10.2,4.24-10.25,10.14-.06,7.67-.06,15.34,0,23.01.05,5.36,3.61,9.37,8.89,10.04,1.57.2,3.19.08,4.79.1,1.74.02,2.55.81,2.58,2.55,0,.46,0,.93,0,1.39,0,3.31,0,6.62,0,10.13Zm-20.49-24.99c0-.52,0-.86,0-1.21,0-6.94-.01-13.89,0-20.83.01-4.98,1.97-9.01,6.02-11.95,2.63-1.91,5.63-2.63,8.86-2.63,15.72.01,31.44,0,47.16,0,.36,0,.73,0,1.18,0-.11-.27-.14-.41-.21-.53-1.98-3.66-5.07-5.47-9.21-5.47-16.59,0-33.18,0-49.77,0-.55,0-1.11,0-1.65.09-5.26.85-8.68,4.88-8.68,10.24,0,7.38,0,14.76,0,22.14,0,.78.02,1.57.14,2.34.59,3.66,2.62,6.22,6.16,7.81Z" fill="#000000"/>
    <path class="cls-1" d="m310.77,161.1c-6.88,0-13.77,0-20.65,0-.4,0-.82-.02-1.21-.08-1-.17-1.71-1.02-1.72-2,0-.99.68-1.83,1.69-2.02.4-.07.81-.1,1.21-.1,13.8,0,27.59,0,41.39,0,.4,0,.81.03,1.21.1,1.01.19,1.69,1.04,1.68,2.03-.01.99-.72,1.83-1.73,2-.4.07-.81.08-1.21.08-6.88,0-13.77,0-20.65,0Z" fill="#000000"/>
    <path class="cls-1" d="m310.84,147.73c6.91,0,13.82,0,20.74,0,1.83,0,2.81.75,2.78,2.13-.03,1.33-1.01,2.07-2.77,2.07-13.88,0-27.77,0-41.65,0-.43,0-.87-.04-1.29-.15-.89-.24-1.49-1.12-1.45-2.03.04-.91.71-1.75,1.61-1.93.39-.08.81-.08,1.21-.08,6.94,0,13.88,0,20.82,0Z" fill="#000000"/>
    <path class="cls-1" d="m310.73,170.38c-6.91,0-13.83.01-20.74-.02-.64,0-1.34-.16-1.9-.45-.76-.4-1.01-1.18-.85-2.02.17-.87.71-1.45,1.6-1.63.39-.08.81-.09,1.21-.09,13.83,0,27.66,0,41.48,0,.35,0,.7.01,1.04.06,1.04.15,1.77.95,1.79,1.93.02,1.06-.64,1.9-1.69,2.11-.39.08-.81.11-1.21.11-6.91,0-13.83,0-20.74,0Z" fill="#000000"/>
    <path class="cls-1" d="m25.81,128.51c.75.09,1.51.14,2.26.28,9.14,1.6,15.63,6.66,19.09,15.25,2.89,7.17,2.24,14.24-1.51,21.01-.14.26-.09.39.1.58,5.82,5.81,11.63,11.63,17.46,17.44,1.33,1.32,2.02,2.89,1.97,4.77-.07,2.84-2.35,5.4-5.17,5.78-2.1.29-3.88-.34-5.38-1.83-5.83-5.83-11.65-11.65-17.47-17.48-.25-.25-.42-.26-.73-.09-5.94,3.29-12.21,4.08-18.73,2.22-9.19-2.61-15.87-10.22-17.4-19.64-.11-.7-.16-1.41-.24-2.12-.01-.12-.04-.23-.06-.35,0-.92,0-1.84,0-2.75.04-.35.09-.69.12-1.04.69-6.43,3.46-11.78,8.31-16.03,3.59-3.14,7.77-5.04,12.5-5.72.7-.1,1.41-.17,2.11-.26.92,0,1.84,0,2.75,0Zm-19.7,24.44c.01,10.22,8.36,18.5,18.66,18.32,10.05-.17,18.04-8.41,18-18.4-.05-10.15-8.28-18.29-18.47-18.26-10.01.04-18.23,8.32-18.19,18.33Z" fill="#000000"/>
    <path class="cls-1" d="m170.04,50.06c-.15.08-.29.14-.42.22-1.93,1.18-4,2.03-6.19,2.59-.52.13-.76.39-.91.89-.52,1.74-1.1,3.47-1.63,5.21-.13.44-.34.6-.82.59-1.84-.03-3.68-.01-5.52,0-.34,0-.51-.08-.62-.43-.57-1.85-1.17-3.69-1.74-5.53-.12-.39-.3-.59-.72-.69-2.29-.55-4.43-1.49-6.47-2.68-.15-.09-.44-.09-.6-.01-1.78.9-3.54,1.83-5.33,2.71-.18.09-.55.03-.69-.11-1.38-1.33-2.73-2.7-4.1-4.05-.27-.26-.22-.47-.07-.77.9-1.71,1.79-3.43,2.65-5.17.11-.21.11-.58,0-.78-1.15-1.99-2.06-4.08-2.61-6.31-.11-.46-.34-.67-.78-.81-1.76-.54-3.5-1.13-5.26-1.66-.45-.14-.6-.35-.59-.82.03-1.8.02-3.61,0-5.41,0-.44.14-.65.57-.79,1.83-.56,3.66-1.14,5.47-1.75.22-.07.47-.35.52-.58.59-2.3,1.48-4.48,2.71-6.52.1-.17.08-.49-.02-.68-.87-1.73-1.76-3.45-2.67-5.16-.19-.35-.18-.57.1-.85,1.37-1.35,2.72-2.71,4.06-4.08.28-.29.48-.18.75-.04,1.71.9,3.43,1.8,5.16,2.66.21.11.58.1.78-.01,1.98-1.18,4.08-2.05,6.3-2.62.45-.11.67-.32.81-.77.54-1.8,1.13-3.58,1.69-5.37.11-.36.28-.5.65-.5,1.9,0,3.8.01,5.7-.01.4,0,.53.19.63.52.54,1.74,1.11,3.46,1.63,5.2.15.52.4.8.94.94,2.17.56,4.22,1.41,6.12,2.6.33.21.58.19.9.01,1.71-.9,3.44-1.78,5.15-2.69.32-.17.52-.14.76.1,1.33,1.33,2.66,2.66,4,3.98.3.29.33.55.13.91-.88,1.66-1.73,3.33-2.61,4.99-.19.36-.23.66,0,1.02,1.23,1.95,2.04,4.08,2.63,6.3.11.42.33.59.72.71,1.79.55,3.58,1.13,5.37,1.68.36.11.49.29.49.66,0,1.9,0,3.8.01,5.7,0,.36-.15.51-.47.61-1.87.58-3.73,1.16-5.59,1.76-.18.06-.41.26-.45.44-.64,2.35-1.52,4.59-2.78,6.68-.09.16-.08.46,0,.63.89,1.74,1.79,3.48,2.71,5.2.17.32.19.52-.09.79-1.33,1.3-2.65,2.62-3.94,3.95-.35.36-.63.37-1.06.13-1.7-.92-3.43-1.79-5.15-2.68-.08-.04-.17-.08-.26-.12Zm-26.37-20.32c-.13,6.9,5.52,13.66,13.57,13.76,7.4.08,13.88-5.82,13.84-13.84-.04-7.54-6.08-13.42-13.31-13.6-7.78-.19-13.94,5.83-14.1,13.68Z" fill="#000000"/>
    <path class="cls-1" d="m214.21,42.11c-.06.13-.11.24-.16.34-.54,1.03-1.1,2.05-1.6,3.09-.11.23-.08.59.02.84.5,1.27,1.07,2.52,1.56,3.8.13.35.27.55.63.66,1.02.3,2.02.66,3.05.95.48.14.7.33.67.88-.05,1.06-.04,2.13,0,3.2.01.39-.13.55-.48.65-1.06.31-2.11.65-3.16.96-.4.12-.56.36-.71.74-.49,1.28-1.06,2.52-1.56,3.8-.1.25-.1.61.01.85.48,1.01,1.02,2,1.54,2.99.18.34.15.57-.15.85-.81.75-1.58,1.55-2.35,2.34-.24.24-.42.3-.74.12-1.03-.57-2.09-1.1-3.15-1.62-.18-.09-.48-.09-.67-.01-1.23.51-2.43,1.1-3.67,1.55-.54.19-.84.43-.98.98-.26.97-.61,1.92-.88,2.89-.12.42-.36.56-.75.56-1.1,0-2.21,0-3.31,0-.34,0-.53-.13-.63-.47-.33-1.09-.66-2.19-1.04-3.26-.08-.23-.32-.47-.54-.57-1.36-.6-2.73-1.17-4.1-1.73-.13-.06-.34-.07-.46,0-1.07.54-2.14,1.09-3.19,1.66-.35.19-.58.16-.86-.12-.78-.81-1.57-1.61-2.38-2.39-.24-.24-.26-.42-.11-.71.55-1.02,1.07-2.06,1.62-3.08.16-.3.14-.52-.01-.85-.57-1.22-1.09-2.47-1.57-3.74-.16-.42-.33-.67-.78-.79-1.04-.28-2.07-.64-3.1-.96-.3-.09-.49-.23-.48-.61.03-1.12.02-2.25,0-3.37,0-.37.12-.56.48-.67,1.09-.33,2.18-.66,3.26-1.04.23-.08.45-.34.55-.57.58-1.32,1.14-2.66,1.67-4,.08-.2.05-.49-.04-.69-.5-1.02-1.03-2.04-1.58-3.04-.17-.3-.17-.52.08-.77.83-.82,1.65-1.64,2.45-2.48.27-.28.51-.18.78-.04,1,.52,2,1.02,2.99,1.54.32.17.57.13.91-.02,1.19-.54,2.4-1.07,3.64-1.5.5-.17.73-.4.87-.87.29-1.02.6-2.04.95-3.04.08-.21.38-.48.59-.49,1.16-.05,2.32-.05,3.49,0,.19,0,.46.28.53.49.36,1.02.68,2.06.98,3.1.13.43.36.64.79.81,1.26.47,2.49,1.04,3.75,1.53.23.09.57.12.79.02,1-.47,1.98-.97,2.95-1.51.4-.22.68-.23,1.01.12.77.82,1.58,1.6,2.37,2.4.09.09.16.2.24.31Zm-6.27,12.07c0-4.92-4-8.93-8.9-8.91-4.93.01-8.89,3.99-8.88,8.91,0,4.97,3.96,8.91,8.94,8.9,4.87,0,8.85-4.01,8.84-8.9Z" fill="#000000"/>
  </g>
</svg>