<svg xmlns="http://www.w3.org/2000/svg" xmlns:xlink="http://www.w3.org/1999/xlink" version="1.1" id="Layer_1" x="0px" y="0px" viewBox="0 0 400 400" style="enable-background:new 0 0 400 400;" xml:space="preserve">
<style type="text/css">
	.st0{fill:#e7aa07;}
</style>
<g id="sJt9K7_00000147186762606807787980000002872168047314344352_">
</g>
<g id="n35BYe.tif">
</g>
<g id="_x32_BotsT_00000127017147902228445230000001965673659629570203_">
</g>
<g id="elwGGx.tif">
</g>
<g id="vHMbrL_00000057134654357215358380000006092319239414757290_">
</g>
<g id="_x39_x45zn_00000111171439385958004890000015224563475041782936_">
</g>
<g>
	<path class="st0" d="M251,318.7c-0.7,0-1.2,0-1.8,0c-43.5,0-87,0-130.5,0c-0.4,0-0.8,0-1.2,0c-2.3-0.1-3.6-1.4-3.6-3.6   c0-6.7,0-13.4,0-20.1c0-2.2,1.2-3.5,3.4-3.6c0.5,0,1,0,1.5,0c43.5,0,87,0,130.5,0c1.9,0,1.7,0.2,1.7-1.7c0-7.2,0-14.4,0-21.6   c0-1.6,0.3-2.9,1.9-3.6c1.6-0.7,3-0.3,4.3,0.9c13.4,12.2,26.9,24.4,40.3,36.6c2,1.8,2,3.9,0,5.7c-13.5,12.4-26.9,24.8-40.4,37.2   c-0.9,0.8-1.9,1.5-3.2,1.2c-1.9-0.4-2.9-1.6-2.9-3.7c0-7.3,0-14.7,0-22C251,319.8,251,319.4,251,318.7z" fill="#000000"/>
	<path class="st0" d="M149.9,254.6c-23.4,0-46.8,0-70.2,0c-9.4,0-17.1-7.1-17.4-16.4c-0.5-13.7-0.5-27.4,1.6-41   c1.1-7,2.9-13.7,6.4-19.9c4.7-8.4,11.9-14,20.5-18c7.5-3.6,15.5-5.7,23.5-7.7c5.9-1.5,5.4-1.8,10.6,2.2c8,6.2,16.1,12.3,24.1,18.5   c0.8,0.6,1.3,0.6,2,0c8.8-6.8,17.7-13.6,26.5-20.4c1.5-1.2,3.1-1.6,5-1.1c8.8,2.3,17.7,4.4,26,8.3c10,4.6,18.1,11.3,22.7,21.5   c2.6,5.6,4,11.5,4.9,17.6c2,13.3,1.9,26.6,1.5,39.9c-0.2,8-5.7,14.4-13.3,16.1c-1.5,0.4-3.2,0.5-4.8,0.5   C196.4,254.7,173.2,254.6,149.9,254.6z" fill="#000000"/>
	<path class="st0" d="M214,153.3c5.2-1.5,10.3-3,15.4-4.4c5.9-1.6,5.5-1.8,10.4,2.1c6.6,5.1,13.3,10.2,19.9,15.4   c0.9,0.7,1.4,0.8,2.4,0c7.4-5.7,14.8-11.3,22.2-17.1c1.7-1.3,3.5-1.7,5.6-1.1c7.4,1.9,14.9,3.8,21.9,7c7.9,3.6,14.6,8.7,18.9,16.4   c3.1,5.5,4.7,11.6,5.6,17.8c1.7,11.2,1.9,22.5,1.4,33.8c-0.4,9.1-7.9,16.3-17,16.3c-24.9,0-49.7,0-74.6,0c-0.4,0-0.8-0.1-1.2-0.1   c0-1.9,0-3.7,0-5.5c0.2-12.7,0.1-25.3-2-37.9c-1.4-8.6-3.7-16.8-8.4-24.2c-4.7-7.5-11.3-13-19-17.3c-0.4-0.2-0.7-0.4-1.1-0.6   C214.4,153.8,214.3,153.7,214,153.3z" fill="#000000"/>
	<path class="st0" d="M196.4,104.5c-0.8,16.7-8.5,31.6-25.4,40.9c-17,9.4-38.4,6.2-52.4-7.4c-19.5-19.1-20.2-50.3-1.4-70.1   c19.1-20.2,51.5-18.4,68.7,3.8C192.9,80.7,196.3,90.9,196.4,104.5z" fill="#000000"/>
	<path class="st0" d="M301.9,109.4c-0.9,15.2-8.4,28.9-24.9,36.4c-17.1,7.9-36.7,2.3-48.2-12.9c-13.2-17.5-11.1-42.7,4.6-57.8   c18.6-17.7,48.2-13.8,61.8,8.3C299.7,90.5,301.9,98.3,301.9,109.4z" fill="#000000"/>
</g>
</svg>