<svg xmlns="http://www.w3.org/2000/svg" xmlns:xlink="http://www.w3.org/1999/xlink" version="1.1" id="Layer_1" x="0px" y="0px" viewBox="0 0 400 400" style="enable-background:new 0 0 400 400;" xml:space="preserve">
<style type="text/css">
	.st0{fill:#e7aa07;}
</style>
<path class="st0" d="M200.1,68c76.1,0,138.9,62.2,137.5,140.2c-1.3,75.8-63.6,136.2-140,135.1c-74-1.1-136.9-62-135.3-140.6  C63.8,127.4,125.3,67.9,200.1,68z M191.2,209.5C191.2,209.5,191.2,209.5,191.2,209.5c0-9.4,0-18.7,0-28.1c0-1.8,0-1.8-1.8-1.9  c-11.4-0.3-22.9-0.7-34.3-1.1c-4.4-0.2-8.7-0.5-13.1-0.8c-0.9-0.1-1.3,0.1-1.4,1.2c-0.3,4.7-0.8,9.4-1.2,14.1  c-0.8,10.1-0.5,20.2,0.3,30.3c0.5,5.7,1.3,11.4,1.9,17.1c0.1,0.8,0.4,1,1.2,1c2.6-0.2,5.1-0.4,7.7-0.5c13.1-0.5,26.1-0.9,39.2-1.3  c1.1,0,1.5-0.3,1.5-1.5C191.2,228.5,191.2,219,191.2,209.5z M314.9,167.8c-0.9,0.4-1.3,0.7-1.8,0.9c-3,0.8-6,1.8-9.1,2.3  c-9.1,1.6-18.2,3.1-27.3,4.5c-1.1,0.2-1.4,0.5-1.3,1.6c0.4,3.3,0.7,6.6,0.9,9.9c0.4,7.8,1.1,15.6,0.7,23.4  c-0.5,10.2-1,20.4-2.4,30.5c-0.3,2.3-0.3,2.3,2,2.6c11.6,1.4,23.2,3.1,34.4,6.3c0.9,0.3,1.2,0,1.5-0.8c3.8-9.7,6.1-19.7,7.3-30  c1.4-12.3,0.9-24.6-1.6-36.8C317.5,177.4,316.1,172.7,314.9,167.8z M208.4,239.3c0.3,0.1,0.4,0.1,0.5,0.1c15.9,0.1,31.8,0.7,47.6,2  c0.3,0,0.9-0.5,0.9-0.9c0.8-7.7,1.9-15.4,2.3-23.2c0.8-13,0.2-26-1.2-38.9c-0.1-0.8-0.4-1-1.2-0.9c-2.4,0.3-4.8,0.5-7.3,0.6  c-12.9,0.5-25.8,1-38.6,1.5c-1,0-2.1,0-3.1,0C208.4,199.6,208.4,219.5,208.4,239.3z M123.9,176c-1.1-0.2-2-0.3-2.9-0.4  c-6.7-1-13.4-1.8-20-2.9c-5-0.8-9.8-2-14.8-3c-0.8-0.2-1.4-0.4-1.7,0.7c-3.2,10.8-5,21.9-5.2,33.2c-0.3,15.2,2.3,30,7.6,44.3  c0.3,0.9,0.7,1.2,1.7,1c7.7-1.4,15.3-2.9,23-4.2c4.2-0.7,8.4-1.1,12.6-1.6c0.6-0.1,1.2-0.1,1.1-1.1c-0.9-7.6-2-15.2-2.7-22.9  c-1-12.3-0.6-24.6,0.7-36.9C123.5,180.3,123.7,178.2,123.9,176z M208.6,86c-0.1,0.1-0.2,0.2-0.3,0.4c0.1,1.1,0.2,2.1,0.2,3.2  c0,22.4,0,44.9,0,67.3c0,1.5-0.1,3.1-0.3,4.6c-0.1,0.8,0.2,1.2,1,1.1c0.3,0,0.5,0,0.8,0c14.8-0.6,29.5-1.2,44.3-1.9  c0.4,0,0.8-0.1,1.4-0.3c-1.4-5.3-2.6-10.5-4.1-15.6c-4.2-13.9-9.7-27.2-18.4-39.1c-4.6-6.4-10-12-16.9-16  C213.9,88.3,211.2,87.2,208.6,86z M143.7,160.6c0.5,0,0.8,0.1,1,0.1c5.7,0.3,11.4,0.7,17.1,1c9.3,0.4,18.6,0.6,27.9,0.9  c1.1,0,1.5-0.3,1.5-1.5c-0.1-3.4,0-6.7,0-10.1c0-21.1,0-42.1,0-63.2c0-1.2-0.3-1.3-1.4-0.9c-4.4,1.5-8.3,4-12,6.9  c-7.7,6.3-13.4,14.2-18.2,22.7c-7.1,12.6-11.8,26.1-15.1,40.1C144.3,157.9,144,159.2,143.7,160.6z M208.4,325.2  c3.8-1.3,7.1-2.9,10.2-5.1c7.8-5.4,13.8-12.5,18.8-20.6c7.6-12.3,12.5-25.7,16.1-39.7c0.1-0.4,0.2-0.9,0.3-1.7  c-15.2-0.6-30.2-1.3-45.4-1.9C208.4,279.4,208.4,302.2,208.4,325.2z M145.7,258.3c0,0.3-0.1,0.4,0,0.5c2,7.9,4.5,15.6,7.7,23  c5,11.6,11,22.6,20.2,31.6c4.3,4.2,8.9,7.7,14.4,10.2c1,0.5,2.1,0.8,3.3,1.3c0-2.5,0-4.7,0-6.9c0-19.8,0-39.6,0-59.4  c0-2.2,0-2.3-2.3-2.2c-11.7,0.4-23.5,0.9-35.2,1.3C151.1,257.9,148.4,258.2,145.7,258.3z M158.5,92.7c0-0.1-0.1-0.2-0.1-0.3  c-1.7,0.6-3.5,1.2-5.1,1.9c-12.2,5.2-23.4,12.2-33.3,21c-11.8,10.5-21.2,22.8-28.3,36.9c-0.4,0.7-0.5,1.2,0.6,1.4  c3.6,0.6,7.2,1.5,10.8,2.1c7.7,1.2,15.4,2.3,23.2,3.4c0.7,0.1,1-0.1,1.2-0.8c0.4-1.8,0.8-3.5,1.3-5.3c5-18.6,12.3-36.2,23.5-52  C154.2,98.2,156.4,95.5,158.5,92.7z M308.4,152.5c-6.4-13.2-14.9-24.3-25.1-34.2c-10.2-9.9-22-17.5-34.9-23.1  c3.3,6,6.9,11.7,9.8,17.8c7,14.1,11.4,29.1,14.4,44.5c0.2,0.9,0.3,1.5,1.6,1.3c8-1.3,15.9-2.6,23.9-3.9  C301.4,154.3,304.8,153.4,308.4,152.5z M94.8,264.9c7.4,13.1,16.9,24.1,28.2,33.5c10.6,8.8,22.4,15.5,35.4,20.3  c-0.2-0.6-0.5-1-0.8-1.5c-2.3-3.1-4.8-6.1-7-9.3c-9.7-14.3-16.3-30-21-46.6c-0.4-1.5-1-1.6-2.3-1.4c-8.6,1.3-17.3,2.4-25.9,3.7  C99.2,263.9,97.1,264.4,94.8,264.9z M304.8,265.8c-0.7-0.2-1.3-0.4-1.9-0.6c-2.8-0.6-5.7-1.2-8.6-1.7c-7.1-1.2-14.3-2.2-21.4-3.3  c-1.1-0.2-1.7,0-2,1.3c-0.9,4-2,8-3.2,12c-4.2,14.3-10,28-18.4,40.4c-0.4,0.6-0.8,1.3-1.2,1.9c0.1,0.1,0.2,0.2,0.3,0.3  C272.5,305.2,291.3,288.6,304.8,265.8z" fill="#000000"/>
<g id="sJt9K7_00000147186762606807787980000002872168047314344352_">
</g>
<g id="n35BYe.tif">
</g>
<g id="_x32_BotsT_00000127017147902228445230000001965673659629570203_">
</g>
<g id="elwGGx.tif">
</g>
<g id="vHMbrL_00000057134654357215358380000006092319239414757290_">
</g>
<g id="FKZOjM_00000130615567926360580870000000099491345021376390_">
</g>
<g id="DvDEO5_00000173118976936466299750000008241534501239644047_">
</g>
</svg>