<svg xmlns="http://www.w3.org/2000/svg" xmlns:xlink="http://www.w3.org/1999/xlink" version="1.1" id="Layer_1" x="0px" y="0px" viewBox="0 0 400 400" style="enable-background:new 0 0 400 400;" xml:space="preserve">
<style type="text/css">
	.st0{fill:#e7aa07;}
</style>
<g id="klYLkP.tif">
</g>
<g>
	<path class="st0" d="M343,184.2c-23.3-15-46.4-29.8-69.7-44.7c-29.2,44.2-58.2,88-87.4,132.1c23.3,14.9,46.3,29.7,69.7,44.7   C284.8,272.1,313.8,228.3,343,184.2z M242.4,290.6c-9.1-5.8-18.1-11.5-26.6-17c0.3-3.5,1.2-6.7,0.6-9.6c-0.6-2.8-2.7-5.3-4.5-8.7   c18.9-28.1,38.3-57,57.9-86.1c6.5,3.1,12.2,2.1,17.1-3.8c9,5.8,18.1,11.5,27.3,17.4c-3.3,6.6-2,12.4,3.7,17.2   c-19.5,28.9-38.8,57.8-58.4,86.9C252.8,283.7,247.2,284.8,242.4,290.6z" fill="#000000"/>
	<path class="st0" d="M340.7,206.2c-0.5,0.7-0.8,1-1.1,1.4c-10.2,14.9-20.4,29.7-30.4,44.8c-14.9,22.4-29.6,44.9-44.4,67.4   c-3.6,5.4-9.4,6.7-14.8,3.3c-11.5-7.2-22.9-14.5-34.3-21.8c-5.6-3.6-11.2-7.1-17-10.7c-1.6,3.4-3.1,6.6-4.6,9.8   c23.3,14.9,46.3,29.7,69.7,44.7c29.2-44.2,58.2-88,87.4-132.1C347.5,210.5,344.2,208.4,340.7,206.2z" fill="#000000"/>
	<path class="st0" d="M281.7,229.3c-0.1-10.2-8.5-18.4-18.9-18.4c-10.3,0-18.7,8.6-18.7,19c0.1,10.4,8.5,18.7,18.9,18.6   C273.8,248.3,281.8,240.1,281.7,229.3z" fill="#000000"/>
	<polygon class="st0" points="76.9,245.6 189.6,245.6 229.9,183.9 229.9,92.6 76.9,92.6  " fill="#000000"/>
	<path class="st0" d="M141.1,277.4c0,0.3-0.7-0.3-1.4-1c-6.1-6.1-12.3-12.3-18.4-18.4c-3.6-3.6-6.9-3.6-10.6,0   c-7.1,6.7-14.1,13.5-21.2,20.2c-6.9-6.9-13.8-13.6-20.5-20.4c-2.4-2.5-4.9-4-8.5-2.8c0-59.6,0-119.1,0-178.4   c51.9,0,103.8,0,155.7,0c9.9,0,19.9,0,29.8,0c0,0,0,0,0.1,0c0,12.7,0,25.1,0,36.7c4.4,1.3,8.3,2.4,12.3,3.6c0-0.1,0.1-0.4,0.1-0.8   c0-15.1,0.1-30.1,0-45.2c0-5.1-2.3-7.1-7.9-7.1c-1.5,0-3,0-4.6,0c-63.4,0-126.8,0-190.3-0.1c-3.7,0-6.3,1.2-8.1,4.4   c0,68.3,0,136.6,0,204.9c3.3,5.7,7.8,6.1,12.1,1.1c1.2-1.3,2.4-2.7,3.2-3.6c6.9,6.6,13.7,12.9,20.4,19.5c4.1,4,7.2,4.3,11.3,0.4   c3-2.8,5.9-5.7,8.9-8.5c4.1-3.9,8.2-7.8,12.4-11.7c7.2,7.2,14.1,14.1,21,21c3.5,3.5,6.9,3.4,10.3-0.2c5.9-6.1,11.8-12.2,17.8-18.2   l-9.1-9.1C151,268.3,146.1,272.9,141.1,277.4z" fill="#000000"/>
</g>
</svg>