<svg xmlns="http://www.w3.org/2000/svg" width="25" height="25" viewBox="0 0 51.988 51.99"> <path id="Path_15058" data-name="Path 15058" d="M49.361,2.642c-5.632-5.616-17.724-1.47-22.933,4.89L.7,40.369A3.265,3.265,0,0,0,.96,44.68l6.363,6.357a3.265,3.265,0,0,0,4.311.265L44.471,25.575a.077.077,0,0,1,.022-.016C50.783,20.4,54.988,8.285,49.361,2.642ZM10.053,40.058a1.083,1.083,0,0,1-1.532,0l-.58-.58a1.083,1.083,0,0,1,1.532-1.532l.58.58A1.083,1.083,0,0,1,10.053,40.058Zm1.005-5.229a1.083,1.083,0,0,1,1.532,0l.58.58a1.083,1.083,0,1,1-1.531,1.531l-.58-.58A1.083,1.083,0,0,1,11.059,34.83Zm3,9.23a1.083,1.083,0,0,1-1.532,0l-.58-.58a1.083,1.083,0,0,1,1.532-1.531l.58.58A1.083,1.083,0,0,1,14.055,44.06Zm3.117-3.117a1.083,1.083,0,0,1-1.532,0l-.58-.58a1.083,1.083,0,0,1,1.532-1.532l.58.58A1.083,1.083,0,0,1,17.172,40.943ZM41.735,22.194a1.083,1.083,0,1,1-1.372-1.675c4.621-3.785,6.171-11.488,4.389-13.27s-9.5-.216-13.277,4.4A1.083,1.083,0,0,1,29.8,10.277c4.093-5,13.292-7.748,16.485-4.56C49.875,9.309,45.995,18.706,41.735,22.194Z" transform="translate(-0.01 0)" fill="#4d4d4d"/> 
                                    </svg>